<?xml version="1.0" encoding="UTF-8" standalone="no"?>
<!-- Creator: CorelDRAW -->

<svg
   xmlns:dc="http://purl.org/dc/elements/1.1/"
   xmlns:cc="http://creativecommons.org/ns#"
   xmlns:rdf="http://www.w3.org/1999/02/22-rdf-syntax-ns#"
   xmlns:svg="http://www.w3.org/2000/svg"
   xmlns="http://www.w3.org/2000/svg"
   xmlns:sodipodi="http://sodipodi.sourceforge.net/DTD/sodipodi-0.dtd"
   xmlns:inkscape="http://www.inkscape.org/namespaces/inkscape"
   xml:space="preserve"
   width="300mm"
   height="300mm"
   style="shape-rendering:geometricPrecision; text-rendering:geometricPrecision; image-rendering:optimizeQuality; fill-rule:evenodd; clip-rule:evenodd"
   viewBox="0 0 300 300"
   id="svg2"
   version="1.1"
   inkscape:version="0.91 r13725"
   sodipodi:docname="Deseño mochila Akademy-es 2019.svg"><metadata
     id="metadata185"><rdf:RDF><cc:Work
         rdf:about=""><dc:format>image/svg+xml</dc:format><dc:type
           rdf:resource="http://purl.org/dc/dcmitype/StillImage" /><dc:title></dc:title></cc:Work></rdf:RDF></metadata><sodipodi:namedview
     pagecolor="#ffffff"
     bordercolor="#666666"
     borderopacity="1"
     objecttolerance="10"
     gridtolerance="10"
     guidetolerance="10"
     inkscape:pageopacity="0"
     inkscape:pageshadow="2"
     inkscape:window-width="832"
     inkscape:window-height="480"
     id="namedview183"
     showgrid="false"
     inkscape:zoom="0.23589074"
     inkscape:cx="531.49605"
     inkscape:cy="523.01755"
     inkscape:window-x="0"
     inkscape:window-y="0"
     inkscape:window-maximized="0"
     inkscape:current-layer="svg2" /><defs
     id="defs4"><style
       type="text/css"
       id="style6"><![CDATA[
    .fil1 {fill:#007B37}
    .fil0 {fill:#09412E}
   ]]></style></defs><g
     id="Capa_x0020_1"><metadata
       id="CorelCorpID_0Corel-Layer" /><rect
       class="fil0"
       y="-0.226314"
       width="300"
       height="300"
       id="rect10" /><path
       class="fil1"
       d="M165.59 202.873l-11.9218 0c-0.5151,0 -0.9589,-0.359 -1.069,-0.8665l-3.7223 -17.8981c-3.5721,-0.9647 -6.9506,-2.389 -10.0845,-4.1969l-15.9548 9.6888c-0.1759,0.1061 -0.3715,0.1575 -0.5656,0.1575 -0.284,0 -0.5646,-0.1101 -0.7756,-0.3196l-8.4272 -8.4286c-0.3664,-0.3666 -0.4264,-0.9381 -0.1428,-1.3723l10.1814 -15.5241c-1.9201,-3.3789 -3.373,-7.0552 -4.3131,-10.9317l-17.5888 -4.2993c-0.4866,-0.1181 -0.8319,-0.5542 -0.8319,-1.0576l0 -11.9219c0,-0.5191 0.365,-0.9608 0.8683,-1.0689l18.1221 -3.7707c1.0032,-3.3479 2.4061,-6.5203 4.1564,-9.4631l-9.8706 -16.2595c-0.2603,-0.4303 -0.1946,-0.9801 0.1601,-1.3373l8.431 -8.4291c0.1833,-0.1794 0.417,-0.2875 0.66,-0.3162l0.0021 0c0.0384,-0.0045 0.0774,-0.0064 0.1165,-0.0064 0.204,0 0.4104,0.0598 0.5933,0.1778l16.0916 10.5538 0.0079 0.0094c1.9859,-1.0804 4.0774,-1.9932 6.2387,-2.7495l0.0001 8.8129c-11.8832,5.3469 -20.1618,17.2841 -20.1618,31.1626 0,18.8664 15.2949,34.1631 34.1618,34.1631 13.2782,0 24.777,-7.5779 30.4289,-18.6392 4.7281,6.92 8.3886,12.279 8.3886,12.279 0.1226,0.1812 0.3236,0.2795 0.5325,0.2795 0.0643,0 0.1295,-0.0094 0.1932,-0.0286l1.858 -0.5868 5.7393 9.4595c0.2623,0.4284 0.1965,0.9782 -0.1606,1.3354l-8.4306 8.4306c-0.2103,0.2103 -0.4882,0.3186 -0.7682,0.3186 -0.2078,0 -0.4175,-0.0598 -0.6017,-0.1812l-15.7235 -10.3089c-3.2091,1.8916 -6.6918,3.3715 -10.3741,4.3649l-4.3841 17.9347c-0.1196,0.4921 -0.5579,0.8339 -1.0592,0.8339m34.3484 -37.741l-28.571 -41.8302 0 37.7141 -21.2535 3.1995 0 -88.4552 21.4812 -2.0571 -0.2277 38.8581 28.3433 -37.9417 22.8554 5.2547 -29.4859 37.9437 29.2562 40.2261 -22.398 7.088z"
       id="path12" /><polygon
       class="fil1"
       points="238.729,93.4993 237.595,93.4993 230.074,61.6209 231.588,61.6209 238.162,89.7152 244.69,61.6209 246.251,61.6209 "
       id="polygon14" /><polygon
       class="fil1"
       points="249.881,93.5458 248.414,93.5458 248.414,61.6673 249.881,61.6673 "
       id="polygon16" /><path
       class="fil1"
       d="M260.257 93.5458c-4.5407,0 -6.8098,-2.9793 -6.8098,-8.4193l0 -15.0863c0,-5.4878 2.269,-8.3728 6.8098,-8.3728 4.5405,-0.0001 6.8118,2.885 6.8118,8.3728l0 0.7563 -1.5151 0 0 -0.7563c0,-3.0762 -0.7563,-4.8244 -1.7962,-5.7718 -1.0403,-0.9457 -2.3657,-1.1347 -3.5005,-1.1347 -1.1347,-0.0002 -2.4586,0.1892 -3.5006,1.1347 -1.0401,0.9474 -1.845,2.6957 -1.845,5.7718l0.0001 15.0863c0,4.7296 1.7501,6.9526 5.3455,6.9526 3.5465,0 5.2967,-2.223 5.2967,-6.9526l0 -4.1624 -6.904 0 0 -1.5128 8.4191 0 0 5.6752c0,5.4879 -2.2714,8.4193 -6.8118,8.4193z"
       id="path18" /><path
       class="fil1"
       d="M276.837 93.5458c-1.5126,0 -3.215,-0.3299 -4.5384,-1.6074 -1.3258,-1.2776 -2.223,-3.3114 -2.223,-6.8582l0 -14.9935c0,-5.44 2.2689,-8.4193 6.7613,-8.4193 4.5411,-0.0001 6.8118,2.933 6.8118,8.4193l0.0002 14.9933c0,3.5469 -0.8992,5.5808 -2.2232,6.8584 -1.3234,1.2773 -3.0277,1.6074 -4.5888,1.6074m0.0001 -30.4123c-3.5928,0 -5.2967,2.2232 -5.2967,6.9532l0 14.9933c0,4.7761 1.7497,6.9991 5.2966,6.9991 3.4541,0 5.2992,-2.0802 5.2992,-6.9989l0.0001 -14.9935c0,-4.8709 -1.7504,-6.953 -5.2992,-6.9532z"
       id="path20" /><path
       class="fil1"
       d="M238.972 128.948l-10.5479 0c-0.9457,0 -1.702,-0.7562 -1.702,-1.7017l0.0002 -0.664c0,-2.6958 0.3778,-4.9651 1.1345,-6.999l-0.0462 0.0464c0.8511,-2.3179 2.3636,-4.446 4.3515,-6.2911 2.4117,-2.269 3.7841,-4.9647 3.7841,-7.7552 0,-2.3175 -0.8048,-3.8325 -2.2231,-3.8325 -1.5151,-0.0002 -2.2714,1.231 -2.2714,3.9732l0.0001 0.2834c0,0.8996 -0.7564,1.6561 -1.6554,1.6561l-1.3704 0c-0.9476,0 -1.7039,-0.7563 -1.7039,-1.6559l0.0002 -0.2836c0,-5.486 2.3172,-8.6544 7.0008,-8.6544 4.4461,0 6.9526,3.6413 6.9526,8.5137 0,4.3515 -1.7502,8.0872 -5.3451,11.3042 -2.2694,1.9854 -3.4062,4.1624 -3.7361,7.3774l7.3775 -0.0001c0.9455,0 1.7037,0.7584 1.7037,1.7039l0 1.2775c0,0.9455 -0.7582,1.7018 -1.7037,1.7017z"
       id="path22" /><path
       class="fil1"
       d="M251.04 128.948c-4.6831,0 -7.0006,-3.406 -7.0006,-9.3647l0.0001 -13.1972c0,-5.9587 2.2709,-9.3164 7.0005,-9.3164 4.6815,0 6.953,3.5006 6.953,9.3164l0.0001 13.1972c0,5.8179 -2.3179,9.3648 -6.9531,9.3648m0 -27.1024c-1.5126,0 -2.271,0.9935 -2.271,4.0676l0.0001 14.1427c0,3.1221 0.7581,4.1141 2.2709,4.1141 1.4667,0 2.223,-0.992 2.223,-4.114l0 -14.1429c0,-3.0742 -0.7563,-4.0675 -2.223,-4.0675z"
       id="path24" /><path
       class="fil1"
       d="M268.641 128.948l-1.3717 0c-0.8972,0 -1.6541,-0.7562 -1.6541,-1.7017l0.0002 -21.2388 -0.2373 0.2378c-0.3304,0.4401 -0.8526,0.6881 -1.3807,0.6881 -0.3795,0 -0.7617,-0.128 -1.0779,-0.4045l-0.899 -0.8048c-0.7563,-0.5192 -0.9457,-1.6074 -0.3785,-2.3637l4.3517 -5.6289c0.1892,-0.284 0.9455,-0.6618 1.3239,-0.6618l1.3234 0c0.9457,0 1.7044,0.7564 1.7044,1.7018l0 28.4748c0,0.9455 -0.7589,1.7018 -1.7044,1.7017z"
       id="path26" /><path
       class="fil1"
       d="M280 128.948c-4.6352,0 -6.9532,-3.1684 -6.9532,-8.0871l0.0002 -0.0485c0,-0.8991 0.7567,-1.7018 1.6558,-1.7018l1.3719 -0.0001c0.9455,0 1.7023,0.8028 1.7023,1.7019l0 0.0483c0,2.223 0.8042,3.4043 2.223,3.4043 0.8043,-0.0001 1.5145,-0.7568 1.8446,-1.7502 0.4727,-1.4188 0.3784,-4.1605 0.3784,-5.5328l0 -0.0945c-0.4248,0.8028 -1.6075,1.2776 -2.7906,1.2776 -4.4923,-0.0001 -6.3856,-3.5949 -6.3856,-9.1296l0.0002 -2.6494c0,-2.3638 0.521,-4.4924 1.515,-6.1 1.2755,-2.1282 3.0737,-3.2164 5.438,-3.2164 4.3996,0 7.0004,3.0737 7.0004,8.3709l0 12.4867c0,4.4925 -1.0398,7.2367 -2.3174,8.7978 -1.4667,1.7966 -3.3111,2.223 -4.683,2.223m0 -27.1974c-1.276,0 -1.7966,1.4669 -2.0343,2.4608 -0.0944,0.6154 -0.1887,1.4182 -0.1887,2.1746l0 2.6492c0,3.0743 0.7563,4.4462 2.223,4.4462 1.4662,-0.0002 2.223,-1.7503 2.223,-4.3977l0 -3.6432c0,-0.8028 -0.0465,-1.8447 -0.4733,-2.6473 -0.2835,-0.6158 -0.8507,-1.0424 -1.7497,-1.0426z"
       id="path28" /><path
       class="fil1"
       d="M45.4356 49.2747l-9.2819 0 -2.2076 -8.0273 -11.3368 0 -2.2576 8.0273 -6.924 0 10.2856 -35.6701 11.4372 0 10.2851 35.6701m-17.1069 -28.5457l-4.2142 15.15 8.3768 0 -4.1626 -15.15z"
       id="path30" /><polygon
       class="fil1"
       points="78.7421,49.2747 69.362,49.2747 62.7395,37.8353 60.1805,40.3942 60.1805,49.2747 52.0528,49.2747 52.0528,13.6046 60.1805,13.6046 60.1805,31.6662 69.362,22.5351 78.0396,22.5351 68.71,31.8668 "
       id="polygon32" /><path
       class="fil1"
       d="M90.4534 49.9269c-4.9168,0 -7.3735,-2.827 -7.3735,-8.4789 0,-3.1765 0.8511,-5.4014 2.557,-6.673 2.1751,-1.6381 6.422,-2.4561 12.7437,-2.4561l0 -2.4587c0,-1.9064 -1.4548,-2.8597 -4.3649,-2.8597 -2.4083,0 -5.3837,0.903 -8.9307,2.709l0.0002 -5.1677c2.6438,-1.8061 5.6868,-2.7091 9.131,-2.7091 3.8132,-0.0001 6.6902,0.5019 8.6296,1.5052 2.4415,1.2696 3.6625,3.4442 3.6625,6.5223l0.0002 19.4145 -7.6763 0 0 -2.91c-2.7422,2.3757 -5.5343,3.5623 -8.3788,3.5623m7.9272 -13.1449c-2.6418,0 -4.4307,0.3181 -5.3682,0.9531 -0.9031,0.6019 -1.3547,1.6232 -1.3547,3.0608 0.0001,2.2422 0.9031,3.3611 2.7092,3.3611 0.903,-0.0001 2.2402,-0.6349 4.0137,-1.9063l0 -5.4687z"
       id="path34" /><path
       class="fil1"
       d="M121.908 49.9269c-3.1785,0 -5.4687,-1.2215 -6.8736,-3.6624 -1.2715,-2.2404 -1.9064,-5.7022 -1.9064,-10.3853 0,-4.8152 0.7696,-8.2612 2.308,-10.3335 1.8061,-2.4761 4.9998,-3.713 9.5827,-3.713 1.1035,-0.0001 2.4407,0.3008 4.0117,0.9031l0 -9.1312 8.1782 0 0 35.6701 -7.7267 0 0 -3.1106c-2.6745,2.5085 -5.2004,3.7629 -7.5741,3.7629m3.8133 -23.1775c-1.8412,0 -3.045,1.1368 -3.6126,3.4116 -0.2683,1.104 -0.4012,3.0104 -0.4012,5.7181 0,2.4752 0.1003,4.1313 0.301,4.9666 0.4672,1.9068 1.5554,2.8597 3.2613,2.8597 0.9687,-0.0001 2.223,-0.5171 3.7608,-1.555l0 -14.749c-0.9357,-0.4356 -2.0397,-0.652 -3.3093,-0.652z"
       id="path36" /><path
       class="fil1"
       d="M156.818 49.9269c-8.5621,0 -12.8441,-4.6831 -12.8441,-14.0477 0,-4.7145 0.9203,-8.1936 2.7595,-10.4344 1.9741,-2.4082 5.1001,-3.6121 9.3821,-3.6121 4.9169,-0.0001 8.1935,1.3546 9.8336,4.0642 1.3373,2.1726 2.0071,6.2541 2.0071,12.2397l-15.403 -0.0001c0,2.6435 0.4016,4.4152 1.2045,5.3181 0.8028,0.9035 2.1898,1.3551 4.1638,1.3551 3.1786,-0.0001 6.1869,-0.8186 9.0313,-2.4587l0.0002 5.1173c-3.2462,1.6387 -6.6232,2.4587 -10.1351,2.4587m-0.5516 -22.9265c-1.5379,0 -2.5917,0.735 -3.1612,2.2076 -0.3686,0.9687 -0.5519,2.4582 -0.5519,4.4633l7.3755 0c0,-2.4414 -0.083,-3.9287 -0.2509,-4.4633 -0.4343,-1.4728 -1.5724,-2.2076 -3.4115,-2.2076z"
       id="path38" /><path
       class="fil1"
       d="M214.726 49.2747l-8.1277 0 0 -18.2605c0,-2.2423 -1.1194,-3.3618 -3.3617,-3.3618 -1.1367,0 -2.6247,0.5519 -4.4633,1.6559l0 19.9664 -8.1277 0 0 -18.2605c0,-2.2423 -1.1215,-3.3618 -3.3619,-3.3618 -1.3716,0 -2.8597,0.5519 -4.4652,1.6559l0.0002 19.9664 -8.1279 0 0 -26.7396 7.6763 0 0 2.7595c2.3078,-2.1419 4.7661,-3.2109 7.3749,-3.2109 3.9134,-0.0002 6.6057,1.2038 8.0778,3.6121 2.4085,-2.4083 5.0329,-3.6121 7.8749,-3.6121 2.7097,-0.0002 4.8841,0.6347 6.5228,1.9064 1.6727,1.2695 2.5085,3.0104 2.5085,5.218l0 20.0666z"
       id="path40" /><path
       class="fil1"
       d="M224.293 58.657l0 -4.9169c3.6121,0 5.4187,-1.3219 5.4187,-3.9638 0,-0.8028 -0.1681,-1.7057 -0.5019,-2.709l-8.4286 -24.5322 8.5793 0 5.8701 17.0065 5.8697 -17.0065 6.4706 0 -9.1292 26.7396c-1.3047,3.846 -2.7096,6.3219 -4.2148,7.4255 -1.8062,1.3045 -5.1175,1.9568 -9.9339,1.9568z"
       id="path42" /><path
       class="fil1"
       d="M266.213 49.6259c-4.9319,0 -7.3962,-2.6975 -7.3962,-8.091 0.0002,-2.717 0.5287,-4.7202 1.5879,-6.011 1.1367,-1.3877 2.9392,-2.0821 5.4053,-2.0821 2.8306,-0.0002 4.7202,0.7814 5.6637,2.3405 0.7697,1.2521 1.156,3.6027 1.156,7.0532l-8.8728 0c0,1.5206 0.2312,2.5413 0.6945,3.0625 0.461,0.5207 1.2623,0.7794 2.3985,0.7794 1.8294,0 3.5641,-0.4707 5.2008,-1.4143l0 2.9461c-1.8683,0.9441 -3.8132,1.4169 -5.8377,1.4169m-0.316 -13.2071c-0.8878,0 -1.494,0.4248 -1.822,1.272 -0.2124,0.5572 -0.3181,1.4165 -0.3181,2.5724l4.249 0c0,-1.407 -0.0481,-2.2636 -0.1448,-2.5724 -0.2508,-0.8473 -0.9051,-1.272 -1.9641,-1.272z"
       id="path44" /><path
       class="fil1"
       d="M280.642 49.6259c-1.7328,0 -3.3132,-0.4726 -4.7389,-1.4165l0 -3.3227c1.2523,1.233 2.6973,1.8486 4.3338,1.8486 1.0227,0 1.7444,-0.1833 2.1693,-0.548 0.2292,-0.2123 0.3453,-0.4341 0.3453,-0.6658 0,-0.7894 -0.6156,-1.4163 -1.8486,-1.8777 -1.9646,-0.7504 -3.1108,-1.233 -3.4387,-1.445 -1.233,-0.8472 -1.8506,-2.1192 -1.8506,-3.8152 0.0002,-1.2331 0.3759,-2.2826 1.1269,-3.1491 1.0418,-1.1946 2.6784,-1.7927 4.9127,-1.7927 1.6773,-0.0002 3.1612,0.3279 4.452,0.984l0 3.1492c-0.9261,-0.8664 -2.4567,-1.3007 -4.5966,-1.3007 -1.233,-0.0001 -1.8486,0.5113 -1.8486,1.5324 0,0.5191 0.6348,0.9727 1.9064,1.3585 1.7348,0.5577 2.9101,1.0592 3.5256,1.5012 1.2716,0.907 1.9083,2.2443 1.9083,4.0178 0,3.2939 -2.1188,4.9419 -6.3583,4.9417z"
       id="path46" /><polygon
       class="fil1"
       points="253.748,49.6255 245.252,49.6255 245.252,46.5479 253.748,46.5479 "
       id="polygon48" /><path
       class="fil1"
       d="M52.9112 175.28l-1.4914 0c-0.8205,0 -1.521,-0.0306 -1.5556,-0.0657 -0.0365,-0.0345 -0.0656,-8.3263 -0.0656,-12.836l0 -8.3828 3.1126 0 3.3465 -0.0079c0.4608,0.0058 0.9222,0.0617 1.2947,0.1739 1.615,0.4921 2.8499,1.9953 3.344,4.0774 0.1718,0.7178 0.197,1.0671 0.16,2.2597 -0.0365,1.1904 -0.083,1.5324 -0.3029,2.1998 -0.4979,1.5204 -1.5398,2.7362 -2.7866,3.3305 -0.5943,0.2859 -0.6985,0.3033 -1.7497,0.3033l-3.306 0 0 8.9478m2.591 -18.7161c-0.0049,0 -0.0098,0 -0.0147,0 -1.3526,0.0098 -2.2443,1.0305 -2.4894,2.8484 -0.1911,1.428 0.1755,3.0158 0.8667,3.7434 0.4342,0.4589 1.0106,0.6977 1.5986,0.6977 0.381,-0.0002 0.767,-0.1004 1.1222,-0.3059 0.8818,-0.5114 1.4223,-1.7829 1.4183,-3.3424 -0.0077,-2.1968 -1.0008,-3.6412 -2.5017,-3.6412z"
       id="path50" /><path
       class="fil1"
       d="M86.9263 166.332l-3.0569 0 -0.0094 -4.2686c-0.008,-4.2648 -0.0001,-4.0059 -0.168,-4.4555 -0.197,-0.5232 -0.573,-0.8511 -1.1407,-0.9959 -0.1812,-0.0444 -0.2776,-0.0518 -0.658,-0.0538 -0.4668,0 -0.5849,0.0153 -0.9242,0.1235 -0.334,0.1057 -0.5884,0.2545 -0.8433,0.4921 -0.3938,0.3684 -0.6096,0.8353 -0.6639,1.4276 -0.0134,0.1605 -0.0232,1.6791 -0.0232,3.786l0 3.9446 -3.0564 0 0 -6.3084 0 -6.0283 6.5993 0c0.83,0 1.4495,0.0831 2.0496,0.3917 0.8666,0.4421 1.4894,1.2662 1.7364,2.2908 0.1488,0.6115 0.1408,0.3492 0.1488,4.9879l0.0099 4.6663z"
       id="path52" /><path
       class="fil1"
       d="M68.4693 166.397c-0.3888,0 -0.7745,-0.0162 -1.0042,-0.0477 -0.7084,-0.0965 -1.2099,-0.247 -1.82,-0.5464 -1.0033,-0.4901 -1.7577,-1.2563 -2.2787,-2.3115 -0.4862,-0.9881 -0.6813,-1.9454 -0.6793,-3.3364 0.0039,-1.6115 0.3226,-2.8347 1.0092,-3.8617 1.0404,-1.5591 2.6553,-2.35 4.7913,-2.35 1.6693,0 3.0184,0.4748 4.0024,1.4065 0.957,0.905 1.4954,1.9953 1.735,3.5122 0.0731,0.465 0.1022,1.8042 0.0498,2.3022 -0.1561,1.5032 -0.6619,2.6764 -1.5456,3.5949 -0.8798,0.9148 -1.9025,1.4143 -3.2398,1.5902 -0.2406,0.0315 -0.6318,0.0479 -1.0201,0.0479m0.381 -9.6958c-0.2906,0 -0.588,0.0385 -0.8004,0.1131 -0.9805,0.3399 -1.6791,1.3219 -1.893,2.6612 -0.2396,1.4913 0.0731,2.9832 0.8103,3.8536 0.4301,0.5074 0.94,0.787 1.5881,0.8701 0.046,0.0063 0.1053,0.0088 0.1719,0.0088 0.2455,0 0.5953,-0.0385 0.7909,-0.0919 0.6773,-0.1887 1.2642,-0.7252 1.6406,-1.5048 0.326,-0.6758 0.4436,-1.3357 0.4145,-2.3371 -0.0213,-0.743 -0.0811,-1.1075 -0.2757,-1.6518 -0.1427,-0.3992 -0.3049,-0.6906 -0.5656,-1.0187 -0.3547,-0.4476 -0.7485,-0.7024 -1.2908,-0.8392 -0.169,-0.0426 -0.378,-0.0633 -0.5908,-0.0633z"
       id="path54" /><path
       class="fil1"
       d="M34.4389 166.34c-0.084,0 -0.1549,-0.0023 -0.2033,-0.0078 -1.034,-0.1196 -1.6594,-0.3301 -2.2635,-0.9475 -0.6135,-0.6274 -0.9377,-1.4993 -0.9337,-2.5204 0.004,-1.8214 0.9357,-3.0258 2.7383,-3.5351 0.3319,-0.0944 1.8021,-0.3625 2.3405,-0.4282 0.5597,-0.0678 1.2716,-0.257 1.4801,-0.3957 0.4382,-0.2875 0.5517,-0.4767 0.5517,-0.915 0.0002,-0.3334 -0.0791,-0.5439 -0.2835,-0.7483 -0.2875,-0.2896 -0.737,-0.421 -1.4349,-0.421 -0.071,0 -0.1443,0.0016 -0.2204,0.004 -1.241,0.0445 -1.7217,0.3724 -1.901,1.2968l-0.0558 0.2934 -2.9448 0 0 -0.1161c0,-0.0632 0.0307,-0.2949 0.0672,-0.5132 0.3088,-1.8062 1.4167,-2.8539 3.3079,-3.2416 0.4589,-0.095 1.0264,-0.1429 1.6014,-0.1488 0.0346,-0.0005 0.0691,-0.0005 0.1037,-0.0005 0.5547,0 1.1124,0.0445 1.5849,0.128 1.7927,0.324 2.7634,1.0803 3.1087,2.547 0.0287,0.1235 0.0465,1.241 0.0598,3.9481l0.0213 3.7786 0.0751 0.2238c0.0889,0.2642 0.3957,0.8512 0.5908,1.0379 0.1328,0.1274 0.2005,0.2894 0.2005,0.4766l0 0.1972 -3.3346 0 -0.1021 -0.1778c-0.1798,-0.3108 -0.3361,-0.5054 -0.3977,-1.1673l-0.0213 -0.2298 -0.2935 0.2722c-0.7428,0.6906 -1.5974,1.0731 -2.462,1.237 -0.2196,0.0419 -0.6821,0.0735 -0.9798,0.0735m3.7181 -5.9764l-0.2317 0.087c-0.3008,0.1136 -0.747,0.2198 -1.6481,0.3912 -1.0651,0.2031 -1.563,0.3918 -1.8351,0.7026 -0.2737,0.3086 -0.3932,0.7815 -0.3142,1.2369 0.1077,0.6314 0.4974,0.9939 1.2059,1.1214 0.0793,0.0138 0.2017,0.0203 0.3392,0.0203 0.2802,0 0.6231,-0.0266 0.7915,-0.0706 0.5982,-0.1542 1.1135,-0.5691 1.3718,-1.1057 0.2357,-0.4861 0.2861,-0.7523 0.3053,-1.6247l0.0154 -0.7584z"
       id="path56" /><path
       class="fil1"
       d="M47.8206 166.332l-3.3326 0c-0.4163,-0.4382 -0.5171,-0.9687 -0.5171,-1.567l-0.0559 -6.8157 0 -11.117 3.1147 0 -0.0252 11.1575 -0.0193 6.4086c0,0.2797 0.1872,0.7178 0.5345,1.1328 0.382,0.4535 0.3009,0.5632 0.3009,0.8008z"
       id="path58" /><path
       class="fil1"
       d="M90.1486 166.313c-0.7914,0 -1.4302,-0.6407 -1.4302,-1.43 0,-0.7891 0.6388,-1.4298 1.4302,-1.4298 0.7895,0 1.4282,0.6408 1.4282,1.4298 0,0.7893 -0.6389,1.43 -1.4282,1.43z"
       id="path60" /><path
       class="fil1"
       d="M100.447 159.518c-0.7279,-0.7142 -1.7397,-1.0769 -3.0356,-1.0881l-0.1238 0c-1.2958,0.0112 -2.3078,0.3739 -3.0357,1.0881 -0.7395,0.7116 -1.1024,1.7163 -1.1024,2.972 0,1.2558 0.3629,2.2465 1.1024,2.972 0.7395,0.7257 1.7581,1.0884 3.0976,1.0884 1.3256,0 2.3442,-0.3627 3.0837,-1.0884 0.7395,-0.7255 1.1021,-1.7162 1.1021,-2.972 0.0002,-1.2558 -0.3626,-2.2464 -1.0883,-2.972l0 0zm-2.4417 5.2045c-0.2094,0.0698 -0.4186,0.1116 -0.6419,0.1116 -0.2651,0 -0.4883,-0.0418 -0.6977,-0.1254 -0.1953,-0.0839 -0.3766,-0.2094 -0.5163,-0.3769 -0.1533,-0.1953 -0.265,-0.4325 -0.3488,-0.7395 -0.0697,-0.3069 -0.1116,-0.6697 -0.1116,-1.0883 0,-0.4604 0.0419,-0.8511 0.1396,-1.158 0.0836,-0.3071 0.1954,-0.5442 0.3489,-0.7257 0.1674,-0.1953 0.3488,-0.3209 0.5301,-0.3767 0.1814,-0.0699 0.4047,-0.0977 0.6419,-0.0977 0.2232,0 0.4464,0.0418 0.6558,0.1117 0.2092,0.0836 0.3767,0.2092 0.5301,0.3907 0.1397,0.1814 0.2513,0.4324 0.335,0.7255 0.0837,0.307 0.1255,0.6837 0.1255,1.1302 0,0.4883 -0.0418,0.8651 -0.1255,1.1442 -0.0699,0.2651 -0.1953,0.5023 -0.3488,0.6977 -0.1395,0.1813 -0.321,0.3069 -0.5163,0.3766l0 0z"
       id="path62" /><path
       class="fil1"
       d="M108.826 158.667c-0.0838,-0.014 -0.1815,-0.0139 -0.2791,-0.0279 -0.1116,0 -0.2093,0 -0.2929,0 -0.335,0 -0.7117,0.0697 -1.1024,0.2232 -0.4047,0.1535 -0.8651,0.4604 -1.4093,0.9349l0 -1.1302 -2.4557 0 0 7.6464 2.4557 0 0 -5.121c0.307,-0.0976 0.5999,-0.1813 0.8652,-0.2232 0.265,-0.0418 0.572,-0.0697 0.9208,-0.0697 0.1536,0 0.3488,0.014 0.572,0.0279 0.2374,0.014 0.4047,0.0418 0.5025,0.0837l0.2232 0 0 -2.3441z"
       id="path64" /><path
       class="fil1"
       d="M117.66 158.667l-2.3859 0 -0.0837 0.3349c-0.2791,-0.1675 -0.586,-0.3069 -0.921,-0.4047 -0.3488,-0.0977 -0.7116,-0.1394 -1.1302,-0.1394 -0.4604,-0.0002 -0.907,0.0836 -1.3534,0.265 -0.4326,0.1814 -0.8094,0.4186 -1.1023,0.7395 -0.321,0.3489 -0.5721,0.7396 -0.7535,1.2 -0.1814,0.4604 -0.2651,1.0046 -0.2651,1.6325 0,1.3116 0.2929,2.3022 0.879,2.9441 0.5721,0.6418 1.4092,0.9628 2.4837,0.9628 0.4326,0 0.8371,-0.0698 1.1999,-0.2093 0.3488,-0.1396 0.6838,-0.3349 0.9767,-0.5721l0.0002 0.1394c0,0.321 -0.028,0.5862 -0.0978,0.8234 -0.0558,0.2232 -0.1674,0.4046 -0.307,0.5442 -0.1535,0.1535 -0.3627,0.2791 -0.6418,0.3628 -0.2931,0.0836 -0.6558,0.1255 -1.1162,0.1255 -0.3348,0 -0.7256,-0.0557 -1.1582,-0.1535 -0.4324,-0.0976 -0.7952,-0.1953 -1.1023,-0.3209l-0.293 0 0 1.9255c0.3768,0.0838 0.8233,0.1675 1.3396,0.2232 0.4839,0.0654 0.9802,0.0941 1.4772,0.0975l0.1758 0c0.6249,-0.0042 1.1855,-0.0605 1.6817,-0.1811 0.5163,-0.1256 0.9628,-0.3349 1.3255,-0.614 0.3768,-0.2791 0.6558,-0.6558 0.8651,-1.1441 0.2094,-0.5024 0.307,-1.1023 0.307,-1.8139l0 -6.7673zm-3.0975 5.5393c-0.2372,0.0699 -0.4744,0.1118 -0.7257,0.1118 -0.5441,-0.0002 -0.9488,-0.1396 -1.2278,-0.4326 -0.2652,-0.2931 -0.4047,-0.8094 -0.4047,-1.5349 0,-0.6697 0.1675,-1.186 0.4883,-1.5487 0.321,-0.3768 0.7954,-0.5582 1.4373,-0.5582 0.1675,0 0.3488,0.014 0.5581,0.0558 0.2093,0.028 0.3768,0.0698 0.5162,0.1396l0.0002 3.4603c-0.1954,0.1256 -0.4048,0.2233 -0.6419,0.3069l0 0z"
       id="path66" /><path
       class="fil1"
       d="M21.1734 168.686c-1.9579,0 -3.9095,-0.8285 -5.4086,-2.4122 -1.4665,-1.5478 -2.5859,-3.9911 -2.7401,-5.9823 -0.1739,-2.2676 0.5789,-4.3764 2.0975,-5.8662 1.4548,-1.4263 3.782,-2.4217 5.681,-2.4315 0.0138,0 0.0277,0 0.0416,0 0.5864,0 1.1339,0.0711 1.6508,0.2104 0.7218,0.1951 1.3797,0.5271 1.9894,1.0012 0.3838,0.2994 0.9029,0.8493 1.1693,1.2371l0.1392 0.2046 -1.3798 0.683 -1.3797 0.6813 -0.3067 -0.2544c-0.6633,-0.5513 -1.4548,-0.8412 -2.2556,-0.8412 -0.2338,-0.0001 -0.4685,0.0246 -0.701,0.0751 -0.7469,0.162 -1.5611,0.5517 -2.1632,1.0338 -1.1806,0.9461 -1.6826,2.472 -1.3624,4.1552 0.1373,0.7272 0.2801,1.1094 0.7814,2.1048 0.4362,0.8665 0.5292,1.0211 0.8226,1.3778 0.7637,0.9321 1.563,1.5151 2.5065,1.8298 0.4497,0.1506 0.9015,0.2237 1.3433,0.2237 1.4859,0 2.8629,-0.8259 3.699,-2.2985 0.2915,-0.5133 0.4303,-1.0631 0.4243,-1.6787 -0.0039,-0.4189 -0.1235,-1.1 -0.2297,-1.3086l-0.0498 -0.1022 -1.6056 0.8107 -1.6075 0.8106 -1.2275 -2.4315 2.8445 -1.4341 2.8424 -1.4354 1.9394 3.8422 1.8585 3.6818 -2.4739 1.2484 -0.6176 -1.2236c-0.3029,1.3796 -1.0961,2.4353 -2.2887,3.2342 -0.2005,0.1372 -0.496,0.3013 -0.8026,0.4554 -0.2955,0.1467 -0.6023,0.2835 -0.8454,0.3745 -0.7753,0.285 -1.581,0.4248 -2.3853,0.4248z"
       id="path68" /><path
       class="fil1"
       d="M64.1779 145.042c-17.5094,0 -31.7854,-13.9071 -32.3822,-31.2702l0.1384 0.1121 0.0119 0.0098 0.1726 0.12 0.0167 0.012 0.1858 0.1046 0.017 0.01 0.194 0.0868 0.0153 0.007 0.1991 0.0717 0.023 0.008 0.2123 0.0502 0.0143 0.0034 0.2139 0.0347 0.0208 0.0034 0.2253 0.015 0.0214 0.0012 0.234 -0.0082 0.0133 -0.0006 0.2329 -0.0223 0.0229 -0.0025 0.2482 -0.0508 0.0114 -0.0025 0.2455 -0.0646 0.0136 -0.0035 0.2546 -0.0854 0.0154 -0.0055 0.2618 -0.1107 0.0084 -0.0034 0.2611 -0.1235 0.0129 -0.0059 0.2727 -0.1518 0.0079 -0.0043 0.2757 -0.1685 0.0101 -0.0064 0.284 -0.1956 0.0075 -0.0055 0.2864 -0.2154 0.0074 -0.006 0.293 -0.241 0.0042 -0.0035 0.2978 -0.2588 0.0064 -0.0054 0.3049 -0.2871c0.3862,-0.3546 0.7451,-0.7231 1.0836,-1.099l0.0005 0.0004 0.0521 0.0573 0.0017 0.0016 0.0433 0.0473 0.0079 0.0084 0.0526 0.051 0.004 0.0037 0.0931 0.0852 0.0156 0.0139 0.0613 0.0448 0.0034 0.0025 0.0497 0.035 0.0076 0.0055 0.0537 0.0341 0.0254 0.0158 0.1242 0.0548 0.0343 0.0148 0.0865 0.0198 0.0132 0.0029 0.0489 0.0079 0.0107 0.0025 0.0444 0.0105 0.1249 0 0.0432 0 0.0528 -0.0121 0.0127 -0.0014 0.0258 -0.0039 0.0521 -0.0138 0.0025 -0.001 0.0274 -0.0074 0.0058 -0.0014 0.0054 -0.0021c0.3214,-0.0988 0.6685,-0.1674 1.0358,-0.2049 -0.0163,0.36 -0.0246,0.7213 -0.0246,1.0848 0,12.9867 10.5381,23.5228 23.5248,23.5228 6.1726,0 11.7929,-2.3795 15.9919,-6.2713 0.2574,0.0784 0.5138,0.1546 0.7696,0.2273 2.3297,0.6627 4.5606,1.0823 6.1232,1.0842 0.4733,-0.0005 0.8876,-0.0379 1.2423,-0.1313 0.3504,-0.0948 0.666,-0.2435 0.8754,-0.5409l0.0054 -0.008 0.3336 -0.5351 0.3176 -0.5758 0.3122 -0.6122 0.2993 -0.6492 0.2861 -0.6821 0.2677 -0.7123 0.2529 -0.7356 0.2342 -0.7593 0.2065 -0.7811 0.1847 -0.7958 0.1557 -0.8087 0.1298 -0.821 0.0924 -0.8259 0.0633 -0.8311 0.0217 -0.8313 -0.0177 -0.8254 -0.0534 -0.8241 -0.1038 -0.814 -0.1477 -0.8003 -0.2021 -0.785 -0.2523 -0.7676 -0.3043 -0.7346 -0.1735 -0.3588 -0.0039 -0.0078 -0.1857 -0.3459 -0.0045 -0.0083 -0.203 -0.3418 -0.0051 -0.008 -0.2152 -0.3295 -0.0045 -0.007 -0.2267 -0.3195 -0.007 -0.0098 -0.2513 -0.3147 -0.0045 -0.0054 -0.2589 -0.3029 -0.0079 -0.0094 -0.281 -0.2924 -0.0056 -0.006 -0.2914 -0.2816 -0.0069 -0.0069 -0.3127 -0.2751 -0.0094 -0.008 -0.332 -0.2602 -0.0059 -0.0045 -0.3388 -0.2476 -0.01 -0.0068 -0.3631 -0.2361 -0.0088 -0.0055 -0.1921 -0.1117c-1.3571,-11.7009 -11.3128,-20.7988 -23.3748,-20.7988 -2.1504,0 -4.2346,0.2894 -6.2141,0.831l-0.3194 -0.05 -2.1287 -0.3319 1.2289 0.7517c-4.3557,1.452 -8.1471,4.1453 -10.9532,7.6586 -0.0299,-0.0006 -0.06,-0.001 -0.0903,-0.001 -0.1329,0 -0.2683,0.0039 -0.4061,0.0114l-0.0066 0.0004 -0.0064 0.0005c-1.0798,0.0925 -2.0314,0.5134 -2.8756,1.1447 -1.2679,0.9484 -2.3189,2.3564 -3.3688,3.9376 -1.0472,1.5807 -2.0897,3.3405 -3.297,5.0053 -0.3334,0.441 -0.6256,0.7444 -0.859,0.9233 -0.2296,0.1778 -0.391,0.2243 -0.4683,0.2243 -0.0018,-0.0001 -0.0037,0 -0.0055,0l-0.0958 -0.0228c-0.0539,-0.0268 -0.1398,-0.1042 -0.2274,-0.2658 -0.1323,-0.2392 -0.2512,-0.6436 -0.3254,-1.1529 -0.0756,-0.5094 -0.1124,-1.1239 -0.1124,-1.7997 -0.0003,-1.5122 0.1831,-3.3315 0.4905,-5.0368l0.1453 -0.8068c4.8974,-11.6826 16.442,-19.8973 29.8953,-19.8973 17.8864,-0.0001 32.4089,14.5227 32.4089,32.4109 0.0002,17.8863 -14.5225,32.4015 -32.4089,32.4015m-24.42 -35.3384c0.4794,-0.6224 0.9285,-1.2374 1.3758,-1.8149 -0.0641,0.3127 -0.1224,0.6289 -0.1739,0.9455 -0.3092,0.3132 -0.6355,0.577 -0.9801,0.7623 -0.0731,0.0389 -0.147,0.0751 -0.2218,0.1071z"
       id="path70" /><path
       class="fil1"
       d="M50.8005 100.666c-0.0079,-0.0198 -0.0157,-0.0399 -0.0238,-0.0602 -0.1345,-0.335 -0.3077,-0.6739 -0.5706,-1.0444 -0.263,-0.3715 -0.5239,-1.0455 -1.0188,-1.5336l-0.355 -0.3504c0.1563,-0.4579 0.3424,-0.6541 0.7709,-1.1041 0.3682,-0.3537 0.8004,-0.5949 1.3102,-0.7534 0.5112,-0.1587 1.1005,-0.2292 1.7554,-0.2292 0.001,0 0.0018,0 0.0028,0 0.0022,0 0.0045,0 0.0067,0 0.5352,0 0.6685,0.0651 1.2799,0.1456 -0.2841,0.5772 -0.3562,0.8622 -0.5961,1.1477 -0.4901,0.582 -0.6241,0.8057 -1.0157,1.1165 -0.3926,0.3086 -0.8022,0.7043 -1.2461,1.4952l-0.0214 0.038 -0.0126 0.0416c-0.1189,0.3907 -0.2085,0.744 -0.2658,1.0907m10.6598 -1.4079c-1.2381,-0.1507 -2.4541,-0.3586 -3.6192,-0.4446 0.0268,-0.0795 0.0524,-0.161 0.0769,-0.2449 0.1731,-0.6044 0.3701,-1.3093 0.3984,-2.1135 1.2244,0.2603 2.4171,0.5139 3.7188,0.7154l0.004 0.0004 0.004 0.0005c0.3606,0.0488 0.6757,0.0732 0.9539,0.0732 0.4476,-0.0025 0.8007,-0.0563 1.0981,-0.2193 0.1472,-0.0826 0.2791,-0.2007 0.368,-0.3498 0.089,-0.1489 0.1285,-0.3201 0.128,-0.4806 -0.0019,-0.2511 -0.081,-0.4802 -0.1966,-0.7104 -0.2046,-0.4013 -0.5376,-0.8166 -0.9673,-1.2661 -0.8971,-0.9328 -2.2289,-1.9998 -3.6852,-3.009l0.0332 0.0099 -0.0035 -0.0011 0.3675 0.1078 0.3571 0.1189 0.3586 0.1315 -0.0029 -0.001 0.3547 0.1323 0.3443 0.1408 0.3389 0.1448 0.6635 0.3142 0.6392 0.3355 0.3047 0.1708 0.2994 0.1804 0.2926 0.1813 0.2814 0.1826 0.2752 0.1933 0.2683 0.1927 0.2564 0.1921 0.246 0.1956 0.2367 0.1982 0.2267 0.1985 0.2173 0.2031 0.2046 0.198 0.1941 0.2022 0.1843 0.2001 0.1684 0.1979 0.1585 0.201 0.1488 0.1957 0.1338 0.1932 0.1161 0.1853 0.1063 0.1892 0.0942 0.1868 0.0811 0.1768 0.0667 0.1744 0.0514 0.1614 0.0345 0.1601 0.0278 0.1581 0.0103 0.1442 0 0.1389 -0.0128 0.1319 -0.0237 0.1195 -0.0396 0.1205 -0.0479 0.1112 -0.0663 0.113 -0.0705 0.1044 -0.0905 0.0953 -0.1116 0.1042 -0.1245 0.0954 -0.1458 0.0918 -0.1688 0.0875 -0.1892 0.0835 -0.2095 0.0776 -0.0499 0.0147c0.039,-0.2148 0.0751,-0.4376 0.1097,-0.6688l0.1477 -0.9851 -0.7959 0.5987c-0.455,0.3434 -0.7241,0.5544 -0.8936,0.6541 -0.085,0.0504 -0.1399,0.0737 -0.1907,0.088 -0.0518,0.0138 -0.1077,0.0213 -0.2015,0.0213 -0.0041,-0.0002 -0.008,0 -0.0119,0 -0.2914,0.0004 -0.864,-0.0929 -2.025,-0.1271l-0.0641 -0.0019 -0.1601 0.0463 -0.0178 0.0055 -0.1032 0.0406 -0.0865 0.0296 -0.0114 0.004 -0.1002 0.0409 -0.0088 0.0039 -0.1779 0.0831 -0.0074 0.0035 -0.168 0.0868 -0.0108 0.0054 -0.1567 0.093 -0.0119 0.0073 -0.1214 0.0836m-6.8225 -0.8155c0.3838,-0.8083 0.8073,-1.6094 0.9394,-2.5297 0.35,0.0606 0.5676,0.0932 0.9334,0.1663 -0.3661,0.6565 -0.8371,1.2474 -1.3623,1.8234 -0.1655,0.1818 -0.3365,0.3611 -0.5105,0.54z"
       id="path72" /><path
       class="fil1"
       d="M33.4805 113.554l-0.162 -0.0103 -0.1637 -0.0272 -0.1508 -0.035 -0.1444 -0.0519 -0.1425 -0.0643 -0.1331 -0.0749 -0.1306 -0.0915 -0.1267 -0.1022 -0.1171 -0.1122 -0.1174 -0.1364 -0.1121 -0.1417 -0.1025 -0.1557 -0.1001 -0.1733 -0.0939 -0.1824 -0.0869 -0.1956 -0.079 -0.2079 -0.0739 -0.2224 -0.0663 -0.2297 -0.0573 -0.2365 -0.049 -0.2515 -0.0418 -0.2628 -0.035 -0.2697 -0.0234 -0.2763 -0.0171 -0.2878 -0.0072 -0.2946 0 -0.3008 0.0092 -0.3078 0.0184 -0.3136 0.028 -0.3176 0.0373 -0.3221 0.0469 -0.3277 0.056 -0.3363 0.0655 -0.3344 0.0748 -0.3404 0.0842 -0.3384 0.0955 -0.3453 0.1032 -0.3447 0.1141 -0.3445 0.1238 -0.3471 0.1347 -0.3484 0.1448 -0.3452 0.1538 -0.3493 0.1648 -0.3449 0.1745 -0.3433 0.1847 -0.3389 0.0271 -0.0463c-0.1358,1.1268 -0.2116,2.2398 -0.2118,3.2411 0.0011,1.0784 0.0851,2.0239 0.296,2.7472 0.1075,0.362 0.2446,0.6738 0.4537,0.9242 0.1049,0.1245 0.2305,0.2331 0.3799,0.3107 0.1474,0.077 0.3174,0.1196 0.4881,0.1196 0.0013,0 0.0026,0 0.0038,0 0.3508,-0.0025 0.6764,-0.1561 0.9987,-0.4032 0.3238,-0.2499 0.6566,-0.606 1.0216,-1.0872l0.0026 -0.0035 0.0027 -0.004c1.6507,-2.2779 2.9717,-4.6751 4.3509,-6.5123 0.6884,-0.9185 1.3895,-1.6944 2.1366,-2.2512 0.7471,-0.5558 1.5304,-0.8966 2.4291,-0.9762 0.1196,-0.0064 0.2367,-0.0098 0.3511,-0.0098 1.2212,0.0003 1.6765,0.1486 2.2985,0.646 0.0414,0.0331 0.0813,0.0667 0.12,0.1013 0.0672,0.493 0.4554,1.2395 0.4551,1.7884 0,0.5 -0.0781,1.0048 -0.2075,1.4929 -0.4638,0.31 -0.9664,0.5508 -1.9038,0.6258 -1.2163,0.0741 -2.2363,0.4442 -3.1094,1.0033 -1.313,0.8414 -2.2996,2.0823 -3.2917,3.3919 -0.5014,0.6633 -1.0043,1.3467 -1.5457,2.0121 -0.1288,-0.015 -0.2624,-0.0396 -0.4016,-0.0762l-1.5779 -0.4129 1.2708 1.1376 0.0503 0.043 0.0326 0.0301 0.0076 0.0078c-0.3487,0.3928 -0.7165,0.7743 -1.1119,1.1364l-0.0022 0.0018 -0.2948 0.2777 -0.2828 0.2456 -0.2736 0.2252 -0.2653 0.2001 -0.2571 0.1773 -0.2503 0.1533 -0.2402 0.1333 -0.2319 0.1097 -0.2238 0.0943 -0.2122 0.0712 -0.2084 0.0552 -0.1917 0.0396 -0.1839 0.0178 -0.1777 0.0058z"
       id="path74" /><path
       class="fil1"
       d="M52.5889 104.817c1.8878,0 3.4186,1.5308 3.4186,3.4184 0,0.5899 -0.065,1.2579 -0.3281,1.7422 -0.5788,1.0656 -1.7926,1.6764 -3.0905,1.6764 -1.8876,0 -3.4184,-1.5308 -3.4184,-3.4186 0,-1.8876 1.5308,-3.4184 3.4184,-3.4184zm1.5072 2.7791c0.7024,0 1.272,0.5696 1.272,1.272 0,0.7024 -0.5696,1.272 -1.272,1.272 -0.7024,0 -1.272,-0.5696 -1.272,-1.272 0,-0.7024 0.5696,-1.272 1.272,-1.272z"
       id="path76" /><path
       class="fil1"
       d="M58.7164 103.545c1.4781,0 2.7478,1.2414 2.7478,2.7193 -0.0001,1.5976 -1.1986,2.7768 -2.6766,2.7051 -0.6106,0 -1.2447,-0.2761 -1.6951,-0.6205 0.0009,-0.0377 0.0015,-0.0756 0.0015,-0.1135 0,-1.0415 -0.3538,-2.0004 -0.9475,-2.7635 0.3242,-1.1132 1.3522,-1.9269 2.5699,-1.9269zm0.9135 2.226c0.6247,0 1.1313,0.5067 1.1313,1.1314 0,0.6247 -0.5066,1.1313 -1.1313,1.1313 -0.6247,0 -1.1314,-0.5066 -1.1314,-1.1313 0,-0.6247 0.5067,-1.1314 1.1314,-1.1314z"
       id="path78" /><path
       class="fil1"
       d="M63.1396 103.593c-0.5197,-0.7435 -1.204,-1.3722 -1.9351,-1.9962l0.0252 -0.0815 0.083 -0.1616 0.043 -0.1233 0.045 -0.1181 0.0494 -0.1162 0.0543 -0.1195 0.0558 -0.1175 0.0572 -0.1078 0.0633 -0.1067 0.0667 -0.1008 0.075 -0.0997 0.0786 -0.0975 0.0856 -0.0909 0.0942 -0.0927 0.0984 -0.0855 0.1111 -0.085 0.118 -0.0815 0.1241 -0.0735 0.1423 -0.0737 0.1536 -0.0717 0.0686 -0.028 0.0836 -0.0288 0.0084 -0.003 0.0854 -0.0336 0.0182 -0.0053c1.1061,0.0346 1.2088,0.1795 1.6209,0.1819 0.001,0 0.002,0 0.0034,0 0.1389,0 0.2767,-0.0127 0.4135,-0.0503 0.1911,-0.053 0.3572,-0.1443 0.536,-0.2648 -0.1862,0.8945 -0.4318,1.599 -0.8241,2.2408 -0.4499,0.7355 -0.6592,1.2079 -1.7026,1.992z"
       id="path80" /><path
       class="fil1"
       d="M87.083 130.286c-0.0029,0 -0.0064,0.0002 -0.0093,0.0002 -0.0026,-0.0002 -0.0051,0 -0.0075,0 -1.0754,-0.0002 -2.6078,-0.2322 -4.2765,-0.6309 -0.9174,-0.2184 -1.8777,-0.4866 -2.8331,-0.7919 2.0664,-0.0267 3.9267,-0.5093 4.7196,-1.4094 0.5771,-0.6931 1.0404,-2.1577 0.4827,-3.0395 -0.0899,-0.1518 -0.2169,-0.3127 -0.377,-0.4812l0.0238 -0.0031 0.0104 -0.0014 0.2065 -0.0361 0.0114 -0.0019 0.2025 -0.0475 0.0103 -0.002 0.1991 -0.0567 0.0094 -0.0025 0.1941 -0.0653 0.0115 -0.0033 0.1921 -0.0762 0.0118 -0.005 0.1852 -0.0864 0.0055 -0.0026 0.1788 -0.0893 0.0129 -0.0063 0.1763 -0.1032 0.007 -0.0045 0.1669 -0.1063 0.009 -0.006 0.1654 -0.1179 0.0074 -0.005 0.1586 -0.1235 0.0094 -0.007 0.1536 -0.1334 0.0075 -0.0064 0.1447 -0.1382 0.0073 -0.007 0.1384 -0.1448 0.008 -0.0083 0.1309 -0.1536 0.0049 -0.006 0.1239 -0.1556 0.007 -0.0084 0.1185 -0.1655 0.0064 -0.0094 0.1087 -0.1693 0.0064 -0.0105 0.1003 -0.1784 0.002 -0.0045 0.0929 -0.1733 0.0075 -0.0137 0.0854 -0.1912 0.0039 -0.0095 0.0737 -0.1892 0.0039 -0.0099 0.0647 -0.1951 0.0035 -0.0088 0.0563 -0.1986 0.0025 -0.0085 0.0483 -0.2015 0.0025 -0.0104 0.0385 -0.2054 0.0026 -0.0129 0.0266 -0.2109 0.0019 -0.015 0.0125 -0.2181 0 -0.0041 0.0078 -0.208 0.0006 -0.0078 0 -0.0085c-0.0006,-2.431 -1.9732,-4.401 -4.4056,-4.4014 -1.152,-0.0001 -2.2013,0.4425 -2.9863,1.1673 -0.4702,-1.5942 -1.9463,-2.7565 -3.6921,-2.7565 -2.1237,-0.0001 -3.8454,1.7206 -3.8454,3.8453 0,0.8846 0.2984,1.6998 0.8003,2.3494 0.0941,0.059 0.1454,0.2125 0.0336,0.234 -0.1117,0.0216 -0.1303,0.0525 -0.2894,0.0821l-0.1394 0.0577 -0.1328 0.0617 -0.1275 0.0677 -0.1235 0.0691 -0.1196 0.0757 -0.1121 0.0789 -0.1062 0.0811 -0.1037 0.085 -0.0988 0.0884 -0.0943 0.0928 -0.087 0.0964 -0.087 0.0983 -0.077 0.1008 -0.0752 0.1036 -0.1352 0.2144 -0.1196 0.2259 -0.1042 0.2317 -0.085 0.241 -0.0712 0.247 -0.0578 0.251 -0.0405 0.255 -0.0291 0.2582 -0.0113 0.2604 -0.006 0.2608 0.0134 0.2603 0.0211 0.2605 0.0366 0.2568 0.0406 0.2529 0.0266 0.1145c-0.0178,-0.0256 -0.0351,-0.0507 -0.0508,-0.0759 -0.1528,-0.2407 -0.7988,-0.7947 -0.7982,-0.9661 0.0791,-5.9528 1.2701,-9.3633 3.1196,-11.5666 0.9258,-1.104 2.5139,-1.9898 3.6302,-2.4561 1.1161,-0.4659 2.2962,-0.66 3.4616,-0.66 1.0014,-0.0001 1.9912,0.1438 2.9121,0.3793l0.4678 0.1315 0.4451 0.1427 0.4268 0.1591 0.409 0.1743 0.3903 0.1819 0.3705 0.1971 0.3606 0.2089 0.3345 0.2175 0.3182 0.2321 0.3072 0.24 0.2875 0.2535 0.2726 0.2637 0.258 0.2688 0.2421 0.2825 0.2312 0.2896 0.2099 0.2959 0.2011 0.3077 0.1891 0.3182 0.1724 0.3205 0.1585 0.329 0.2826 0.6812 0.2337 0.7104 0.1873 0.7287 0.1378 0.7474 0.0977 0.7637 0.0505 0.778 0.0168 0.787 -0.0208 0.7895 -0.0602 0.7948 -0.0885 0.7909 -0.1249 0.7874 -0.1497 0.7786 -0.1779 0.7671 -0.1991 0.752 -0.2247 0.7291 -0.2451 0.7114 -0.2574 0.6851 -0.2736 0.6536 -0.2865 0.6205 -0.2974 0.5843 -0.2998 0.5435 -0.3133 0.5018c-0.0336,0.043 -0.1501,0.1276 -0.3793,0.1864 -0.2431,0.0646 -0.592,0.1023 -1.0128,0.1023m-6.8563 -9.0954c-0.3871,-0.1642 -0.7748,-0.3239 -1.1637,-0.4771l0.1006 -0.0599 0.0091 -0.0052 0.2974 -0.1837 0.0276 -0.0172 0.2966 -0.2123 0.02 -0.0153 0.1242 -0.0994c0.0749,0.3655 0.1714,0.723 0.2882,1.0701z"
       id="path82" /><path
       class="fil1"
       d="M78.1028 120.347c-0.8606,-0.2722 -1.6945,-0.4634 -2.4315,-0.533 -0.1018,-0.0781 -0.1981,-0.163 -0.2886,-0.2534 -0.5314,-0.5327 -0.9014,-1.2774 -0.9018,-2.0886 -0.0805,-0.8522 0.2563,-1.6065 0.8589,-2.1026 0.618,-0.5166 1.3051,-0.815 2.1163,-0.8155 0.8111,0.0004 1.5428,0.3275 2.0753,0.8591 0.4955,0.4954 0.8142,1.1624 0.8556,1.9068 -0.3656,0.5902 -0.5948,1.2736 -0.6457,2.0057l-0.0197 0.026 -0.0924 0.1057 -0.0964 0.1014 -0.1032 0.0962 -0.1102 0.0949 -0.1116 0.0899 -0.1087 0.0775 -0.1235 0.0766 -0.1249 0.0736 -0.1191 0.0614 -0.1343 0.0592 -0.1335 0.0543 -0.1333 0.045 -0.1388 0.0385 -0.0889 0.0213m-1.9081 -4.4222c-0.6214,0 -1.1174,0.5014 -1.1174,1.1155 0.0001,0.6193 0.496,1.1188 1.1174,1.1188l0.054 0 0.0617 -0.004 0.0543 -0.0073 0.0559 -0.01 0.0538 -0.0133 0.0543 -0.0152 0.0479 -0.0174 0.0543 -0.0197 0.0481 -0.0229 0.0483 -0.0252 0.0465 -0.025 0.0484 -0.0307 0.0405 -0.0312 0.0405 -0.0325 0.0425 -0.0352 0.0405 -0.0365 0.0326 -0.0385 0.0425 -0.0424 0.0271 -0.0407 0.0327 -0.0443 0.0291 -0.0465 0.0267 -0.0458 0.0272 -0.0486 0.0192 -0.0504 0.0213 -0.0499 0.0212 -0.0523 0.0133 -0.0538 0.0139 -0.0518 0.0053 -0.0565 0.008 -0.0558 0.0059 -0.0558 0 -0.0577 0 -0.0021c0,-0.614 -0.498,-1.1153 -1.1175,-1.1153z"
       id="path84" /><path
       class="fil1"
       d="M84.1296 123.18c-0.1082,0 -0.2149,-0.0049 -0.3206,-0.0147 -0.7134,-0.5243 -1.6278,-1.068 -2.6237,-1.562 -0.3774,-0.5644 -0.5978,-1.2414 -0.5978,-1.9721 -0.088,-1.0018 0.3325,-1.8795 1.0395,-2.5066 0.6432,-0.6422 1.5273,-1.0383 2.5075,-1.0383 0.9811,-0.0001 1.8658,0.3961 2.5096,1.0383 0.6412,0.6417 1.0373,1.5226 1.0393,2.4997l-0.0075 0.191 -0.0103 0.1845 -0.0217 0.1708 -0.0321 0.1715 -0.042 0.1738 -0.049 0.1718 -0.0552 0.1667 -0.0623 0.1595 -0.0682 0.1536 -0.0819 0.153 -0.086 0.1532 -0.0895 0.1404 -0.0993 0.1383 -0.1081 0.136 -0.1111 0.1302 -0.1157 0.1216 -0.1224 0.1166 -0.1285 0.1112 -0.1359 0.1057 -0.1413 0.1003 -0.1436 0.0918 -0.1448 0.0854 -0.1557 0.0776 -0.1566 0.0731 -0.1585 0.0628 -0.1651 0.0549 -0.1699 0.0483 -0.1694 0.0396 -0.1753 0.0311 -0.1779 0.0222 -0.1803 0.0138 -0.1887 0.0054m-1.803 -5.3495c-0.5982,0 -1.0784,0.4827 -1.0784,1.079 0,0.5943 0.4802,1.0764 1.0784,1.0764l0.0524 0 0.0598 -0.0035 0.0518 -0.0078 0.0523 -0.01 0.052 -0.0113 0.0524 -0.0153 0.0463 -0.0153 0.0539 -0.0198 0.0444 -0.0208 0.0924 -0.0504 0.0464 -0.0291 0.0386 -0.0287 0.0405 -0.0331 0.0385 -0.0324 0.0405 -0.0367 0.0332 -0.0366 0.0385 -0.041 0.0271 -0.0405 0.0327 -0.0404 0.0252 -0.044 0.0538 -0.093 0.0385 -0.0962 0.0193 -0.0504 0.0138 -0.05 0.0134 -0.0524 0.0058 -0.0537 0.0075 -0.0542 0.006 -0.0539 0 -0.0559c0,-0.5963 -0.4808,-1.0788 -1.077,-1.079z"
       id="path86" /><path
       class="fil1"
       d="M76.0196 127.942c-0.5242,0 -1.0241,-0.0221 -1.4865,-0.0656 -0.8799,-0.0833 -0.8897,0.0032 -0.7539,-0.7663 0.6285,0.1108 1.3996,0.171 2.2404,0.1706 0.0009,-0.0002 0.0023,0 0.0033,0 1.4219,-0.0002 3.0436,-0.172 4.5336,-0.5445 1.4913,-0.3711 2.8499,-0.9484 3.7444,-1.7215l0.4319 0.5009c-1.0212,0.8767 -2.4626,1.4731 -4.0163,1.8624 -1.5536,0.3876 -3.2214,0.564 -4.6969,0.564z"
       id="path88" /><path
       class="fil1"
       d="M50.7954 126.581c0.3341,-0.202 1.0484,-0.6511 1.3684,-0.9362 0.8468,-0.7554 1.5689,-1.2828 2.2708,-3.3052l0.3881 -1.3312c0.0908,0.1541 0.1495,0.3356 0.1927,0.4995l0.0039 0.0148c0.275,1.494 0.016,2.5325 -0.225,3.8293 0.2144,0.0473 0.3358,0.1603 0.5305,0.1971 0.3263,-0.5853 0.642,-1.3418 0.8806,-1.5804 0.0805,-0.1151 0.1642,-0.2802 0.5467,-0.4338 0.4986,-0.2002 1.307,0.2928 1.5988,0.3741 0.1802,0.0501 0.2016,-0.0036 0.379,-0.0578 -0.0493,-0.0434 -1.2799,-0.9302 -1.3286,-0.9751 -0.7808,-0.7204 -1.5463,-1.8074 -2.1146,-2.8208 -0.0497,-0.1113 -0.1004,-0.2053 -0.1633,-0.3031 -0.2256,-0.4351 -0.4216,-0.8908 -0.5808,-1.3614l0.9965 -0.3358c0.3803,1.1282 1.0163,2.1838 1.7607,3.0534 0.7433,0.8704 1.5968,1.553 2.3811,1.9458 0.5193,0.2613 1.0049,0.3913 1.3901,0.3913 0.002,0 0.0041,0 0.0061,0 0.1362,0 0.2597,-0.0154 0.3709,-0.0436l0.044 0.1716c0.5478,-0.0766 0.9746,-0.1163 1.3412,-0.1888 0.5439,-0.1096 0.9727,-0.2693 1.6342,-0.7602 0.3965,-0.2969 0.8689,-0.716 1.4661,-1.3092 -0.208,-0.4659 -0.5097,-1.1278 -0.7726,-1.9543 -0.3136,-0.9849 -0.5755,-2.2111 -0.5755,-3.649 0,-1.1531 0.1685,-2.4421 0.6082,-3.8488 -0.8957,-2.7907 -1.2267,-5.4014 -2.4044,-7.3096 -1.1964,-1.9344 -3.2332,-3.1847 -6.1514,-4.3286l-0.6442 -0.2515 0.5447 -0.4263c0.2003,-0.1482 0.4591,-0.5721 0.632,-1.1901 0.2079,-0.4597 0.4192,-1.182 0.4949,-1.8216 0.0635,-0.5367 0.0133,-0.9986 -0.0325,-1.3626 0,-0.0152 -0.0001,-0.0302 -0.0001,-0.0453 -0.1631,0.3519 -0.3577,0.9493 -0.5957,1.4147 -0.3967,0.7759 -0.8813,1.4448 -1.2967,1.8984 -1.1187,1.2207 -2.3747,2.2797 -3.2464,3.5493l-0.6528 -0.4421c0.915,-0.8327 2.2978,-2.7927 2.8722,-4.5071 0.2269,-0.6109 0.1991,-1.3076 0.2916,-1.8113 -0.0804,0.0999 -0.4734,1.0635 -0.5746,1.2375 -0.5062,0.8684 -0.549,0.707 -0.948,1.2366 -0.3104,0.4118 -0.5252,0.7139 -1.0845,1.1636 -0.2118,0.2089 -0.3926,0.5032 -0.6549,0.9602 -0.2015,0.6729 -0.2184,1.1874 -0.2191,1.7506 0,0.4125 0.0512,0.8704 0.1593,1.4647l0.1401 0.7692c0.2669,-0.0494 0.542,-0.0756 0.8232,-0.0756 0.993,0 1.9099,0.324 2.6516,0.872 0.6033,-1.2666 1.8971,-2.1435 3.3906,-2.1435 1.7898,-0.0376 3.7525,1.6805 3.7525,3.748l0 0.0089 0 0.0044 -0.0045 0.1823 0 0.0133 -0.0133 0.1735 0 0.0088 -0.0223 0.1823 -0.0045 0.0133 -0.0311 0.1734 0 0.0134 -0.04 0.1689 -0.0045 0.009 -0.0489 0.1689 -0.0043 0.0177 -0.0535 0.1556 -0.0043 0.009 -0.0623 0.16 -0.0045 0.0089 -0.0712 0.1557 -0.0043 0.0133 -0.0756 0.1467 -0.0045 0.0088 -0.0889 0.1556 -0.0088 0.0135 -0.089 0.1378 -0.0089 0.0088 -0.0933 0.1334 -0.0045 0.0089 -0.1112 0.1379 -0.0088 0.0178 -0.1068 0.1155 -0.0044 0.0045 -0.1201 0.1245 -0.0088 0.0133 -0.12 0.1156 -0.009 0.0044 -0.129 0.1156 -0.0133 0.0089 -0.1289 0.0978 -0.0089 0.0045 -0.1334 0.0978 -0.0088 0.0044 -0.1468 0.0934 -0.0088 0.0089 -0.1512 0.0844 -0.0178 0.009 -0.1423 0.0711 -0.0088 0.0045 -0.1557 0.0711 -0.0133 0.0044 -0.1556 0.0623 -0.0045 0 -0.1689 0.0622 -0.0134 0.0044 -0.1734 0.0489 -0.0178 0.0045 -0.1644 0.0311 -0.0044 0 -0.1734 0.0355 -0.0134 0 -0.1777 0.0223 -0.0135 0 -0.169 0.0133 -0.0043 0 -0.1824 0.009 -0.0133 0c-0.6422,0 -1.2468,-0.1616 -1.7753,-0.4462l-0.0031 0.0104 0 0.0134 -0.0668 0.1957 -0.0043 0.0088 -0.0756 0.1911 -0.0045 0.0135 -0.0889 0.1866 -0.0045 0.009 -0.0889 0.1822 -0.0088 0.0134 -0.1023 0.1734 -0.0045 0.0088 -0.1111 0.1735 -0.0045 0.0088 -0.12 0.1646 -0.0088 0.0133 -0.1245 0.1555 -0.0045 0.009 -0.1335 0.1511 -0.0043 0.0045 -0.1423 0.1555 -0.0134 0.009 -0.1466 0.1378 -0.009 0.009 -0.1468 0.1288 -0.0088 0.0045 -0.16 0.1289 -0.0133 0.0089 -0.1646 0.1201 -0.0133 0.0044 -0.1735 0.1111 -0.0088 0.0045 -0.1778 0.1022 -0.009 0.0045 -0.1778 0.0889 -0.0044 0.0045 -0.1913 0.0889 -0.0177 0.0089 -0.1912 0.0711 -0.0088 0.0045 -0.1956 0.0666 -0.0135 0 -0.1999 0.0579 -0.0133 0.0045 -0.2046 0.0443 -0.009 0.0045 -0.2134 0.0356 -0.0133 0.0045 -0.2045 0.0221 -0.0089 0 -0.2179 0.0223 -0.0178 0 -0.2089 0 -0.0045 0c-2.4675,0 -4.4681,-1.9963 -4.4681,-4.4638 0,-1.9795 1.2871,-3.6581 3.07,-4.245l-0.2509 -0.6827c-0.3784,-0.8279 -0.4562,-1.2801 -0.6189,-1.7671 -0.1643,-0.4896 -0.3869,-1.1035 -0.7269,-1.5857 -0.0285,-0.0404 -0.2576,-0.4249 -0.4754,-0.7884 -0.1922,-0.3206 -0.9415,-0.9866 -0.9718,-1.0248 0.0198,0.1501 0.5783,1.3065 0.6776,1.7041 0.2186,0.8753 0.5174,1.7538 0.3959,2.246 0,0.9272 -0.1685,1.5332 -0.6931,2.4599 -0.523,0.9279 -1.1689,1.4518 -2.5791,2.0218l-0.2857 0.1161 -0.1813 -0.2494c-0.1889,-0.2604 -0.3594,-0.4278 -0.4973,-0.5217 -0.1397,-0.0943 -0.2371,-0.1181 -0.3263,-0.1191 -0.0771,0 -0.1602,0.0203 -0.2645,0.0756 -0.1035,0.0543 -0.2235,0.1452 -0.3516,0.2683 -0.2572,0.2465 -0.5422,0.6209 -0.8462,1.0483 -0.6126,0.8556 -1.2999,1.923 -2.2216,2.6735 -0.5708,0.4643 -1.2533,0.8077 -2.0473,0.8521l0.03 0.0326 0.0092 0.0119 0.0336 0.0424 0.0322 0.0352 0.0366 0.0399 0.0314 0.0302 0.069 0.0632 0.0244 0.0178 0.0355 0.0247 0.0128 0.0083 0.035 0.0153 0.0004 0 0.0409 0.0065 0.013 -0.0021 0.0034 -0.0004 0.0022 -0.0005 -0.0012 0.0005 0.0236 -0.0063c0.6072,-0.1868 1.2691,-0.2728 1.9628,-0.2728 1.8487,0.0016 3.9292,0.6086 5.8277,1.6649 1.8968,1.0576 3.6131,2.5668 4.696,4.4104 0.721,1.2281 1.0818,2.5994 1.0816,4.076 0.0007,1.0081 -0.2224,2.0645 -0.6658,3.1319 -0.3033,0.7301 -0.9833,1.8206 -1.5227,2.5649l0 0.0001zm10.5592 -4.9387c0.1137,-0.0709 0.9113,0.141 0.8335,0.6752l0 0.0346 -0.0035 0.0347 -0.0059 0.0331 -0.006 0.0346 -0.0094 0.033 -0.0118 0.0307 -0.0134 0.0311 -0.0311 0.0617 -0.0385 0.0579 -0.0213 0.0266 -0.0233 0.0273 -0.0246 0.025 -0.0272 0.0254 -0.0271 0.0232 -0.0287 0.021 -0.0618 0.0422 -0.033 0.0197 -0.0346 0.0173 -0.0346 0.0154 -0.037 0.0152 -0.0365 0.0138 -0.0367 0.0114 -0.0385 0.0114 -0.1216 0.0232 -0.0424 0.0039 -0.0424 0.002 -0.0426 0.0001c-0.4614,0 -0.8359,-0.303 -0.8359,-0.6753 0,-0.3745 0.3745,-0.6754 0.8359,-0.6754zm2.9408 -0.6367c0.3725,0 0.6754,0.2484 0.6754,0.5572l0 0.0271 -0.0074 0.0579 -0.0061 0.0271 -0.0078 0.0272 -0.0074 0.0248 -0.0119 0.027 -0.0114 0.0253 -0.0138 0.0251 -0.0306 0.0461 -0.0173 0.0231 -0.0192 0.0213 -0.0426 0.0424 -0.0211 0.0193 -0.0252 0.0174 -0.0233 0.0178 -0.0252 0.0172 -0.0539 0.0305 -0.0291 0.0119 -0.0286 0.0135 -0.0312 0.0117 -0.0305 0.0094 -0.0313 0.008 -0.0325 0.0074 -0.0312 0.0059 -0.0346 0.0059 -0.0325 0.004 -0.0351 0.0014 -0.0346 0c-0.3725,0 -0.6752,-0.2484 -0.6752,-0.5556 0,-0.3088 0.3027,-0.5573 0.6752,-0.5573z"
       id="path90" /><path
       class="fil1"
       d="M71.32 123.756l-0.014 -0.1405c0,0.5688 0.1321,1.2046 0.3224,1.7009 0.1272,0.3319 0.1821,0.5334 0.6726,0.9841 0.1025,0.0941 0.3058,0.2308 0.4345,0.2952 -0.0652,-0.2324 -0.3708,-1.038 -0.4905,-1.3956 -0.0861,-0.257 -0.1196,-0.5916 -0.1829,-0.8357 -0.1181,-0.4552 -0.4554,-0.3931 -0.7421,-0.6084z"
       id="path92" /><path
       class="fil1"
       d="M54.7323 260.219c-2.0107,0 -3.578,0.9057 -4.4014,2.5584 -0.5863,1.1735 -0.6039,2.3186 -0.6039,2.4441l0 3.3045c0,0.5929 0.4842,1.0773 1.08,1.0773 0.5952,0 1.0796,-0.4844 1.0796,-1.0773l0 -3.3045c0,-0.0089 0.0145,-0.7608 0.3762,-1.4813 0.4588,-0.9204 1.2647,-1.3676 2.4695,-1.3676 1.1801,0 1.9802,0.4304 2.4418,1.3136 0.3933,0.7402 0.4048,1.5324 0.4048,1.5353l0 3.3045c0,0.5929 0.4842,1.0773 1.0794,1.0773 0.5929,0 1.0771,-0.4844 1.0771,-1.0773l0 -3.3045c0,-0.1255 -0.0173,-1.2706 -0.6039,-2.4441 -0.8232,-1.6527 -2.3876,-2.5584 -4.3992,-2.5584z"
       id="path94" /><path
       class="fil1"
       d="M76.276 263.687c0.3881,0.7402 0.4048,1.5324 0.4048,1.5353l0 3.3045c0,0.5929 0.4813,1.0773 1.0771,1.0773 0.5952,0 1.0796,-0.4844 1.0796,-1.0773l0 -3.3045c0,-0.1255 -0.017,-1.2706 -0.607,-2.4441 -0.8203,-1.6527 -2.387,-2.5584 -4.3957,-2.5584 -1.681,0 -3.0426,0.6293 -3.9288,1.7918 -0.8861,-1.1625 -2.2477,-1.7918 -3.926,-1.7918 -2.0114,0 -3.5752,0.9057 -4.3986,2.5584 -0.5898,1.1735 -0.6068,2.3186 -0.6068,2.4441l0 3.3045c0,0.5929 0.4844,1.0773 1.0794,1.0773 0.5958,0 1.0802,-0.4844 1.0802,-1.0773l0 -3.3045c0,-0.0089 0.0168,-0.7608 0.3763,-1.4813 0.4581,-0.9204 1.2677,-1.3676 2.4695,-1.3676 1.1794,0 1.9801,0.4304 2.4447,1.3136 0.3903,0.7402 0.4019,1.5324 0.4019,1.5353l0 3.3045c0,0.5929 0.4844,1.0773 1.0794,1.0773 0.5981,0 1.0802,-0.4844 1.0802,-1.0773l0 -3.3045c0,-0.0089 0.0138,-0.7608 0.3756,-1.4813 0.4588,-0.9204 1.2675,-1.3676 2.473,-1.3676 1.1795,0 1.9773,0.4304 2.4412,1.3136z"
       id="path96" /><path
       class="fil1"
       d="M54.7323 264.156c-0.7322,0 -1.3274,0.5959 -1.3274,1.3281 0.0002,0.7315 0.5952,1.3273 1.3274,1.3273 0.7323,0 1.3252,-0.5958 1.3252,-1.3273 0,-0.7322 -0.5929,-1.3281 -1.3252,-1.3281z"
       id="path98" /><path
       class="fil1"
       d="M116.119 262.778c-0.8256,-1.6498 -2.3902,-2.5584 -4.4015,-2.5584 -2.0116,0 -3.5752,0.9086 -4.3986,2.5584 -0.5869,1.1735 -0.6039,2.3186 -0.6039,2.4441l0 3.3016c0,0.5958 0.4813,1.0802 1.0765,1.0802 0.596,0 1.08,-0.4844 1.08,-1.0802l0.0002 -3.3016c0,-0.0089 0.0139,-0.7608 0.3755,-1.4813 0.4587,-0.9204 1.2683,-1.3676 2.4703,-1.3676 1.1823,0 1.983,0.4304 2.4447,1.3136 0.3903,0.7402 0.4039,1.5324 0.4039,1.5353l0.0002 3.3016c0,0.5958 0.4819,1.0802 1.0772,1.0802 0.5952,0 1.0793,-0.4844 1.0793,-1.0802l0 -3.3016c0,-0.1255 -0.0167,-1.2706 -0.6038,-2.4441z"
       id="path100" /><path
       class="fil1"
       d="M111.717 264.156c-0.7323,0 -1.3248,0.5959 -1.3248,1.3281 0.0002,0.7315 0.5923,1.3273 1.3246,1.3273 0.7353,0 1.3281,-0.5958 1.3281,-1.3273 0,-0.7322 -0.593,-1.3281 -1.3279,-1.3281z"
       id="path102" /><path
       class="fil1"
       d="M80.2078 261.558l0.2079 0 0 5.7601 0.0226 0.1088c0.2195,1.0479 1.0655,2.1763 2.4075,2.1763l1.633 0c0.5952,0 1.0794,-0.4844 1.0794,-1.0773 0,-0.5952 -0.4842,-1.0794 -1.0794,-1.0794l-1.633 0c-0.0991,0 -0.2196,-0.2305 -0.2736,-0.3872l0.0002 -5.5013 2.029 0c0.5952,0 1.0765,-0.4844 1.0765,-1.0774 0,-0.5952 -0.4815,-1.0764 -1.0765,-1.0764l-2.029 0 0 -1.0263c0,-0.595 -0.4843,-1.0765 -1.0795,-1.0765 -0.5959,0 -1.0772,0.4815 -1.0772,1.0767l0 1.0261 -0.2079 0c-0.595,0 -1.0794,0.4812 -1.0794,1.0764 0,0.593 0.4844,1.0774 1.0794,1.0774z"
       id="path104" /><path
       class="fil1"
       d="M87.7238 268.868c1.1252,0.6126 2.222,0.7205 2.3446,0.7323 0.0314,-0.0002 0.0626,0.0029 0.0932,0.0029 0.5531,0 1.0263,-0.4217 1.0745,-0.9832 0.051,-0.5952 -0.3844,-1.1166 -0.9773,-1.1706 -0.0081,0 -0.8032,-0.0802 -1.5557,-0.5046 -0.5324,-0.3021 -0.903,-0.6922 -1.1079,-1.1853l6.7463 0 0 -1.0765c0,-1.2937 -0.5303,-2.43 -1.4871,-3.2024 -0.8205,-0.6638 -1.9086,-1.0285 -3.0624,-1.0285 -1.1567,0 -2.245,0.3647 -3.0653,1.0285 -0.9605,0.7724 -1.4879,1.9087 -1.4879,3.2024 0,1.8293 0.8832,3.3134 2.4848,4.185m2.0684 -6.2592c0.6491,0 1.6235,0.2311 2.1077,0.9942l-4.2162 0.0027c0.4786,-0.7658 1.4587,-0.9969 2.1085,-0.9969z"
       id="path106" /><path
       class="fil1"
       d="M100.532 260.008c-3.0194,0 -5.1253,1.8628 -5.1253,4.5299 0.0002,1.4559 0.5557,2.6037 1.5696,3.2644 -0.7323,0.4019 -1.1793,1.1255 -1.1793,1.9204 0,0.6264 0.2822,1.1764 0.8088,1.5557 0.2626,0.1509 0.5243,0.2793 0.784,0.3901 -1.08,1.7439 -2.2339,3.2675 -3.4301,4.527l-0.0291 0.0314 0 0.0312c-0.601,0.6215 -1.2187,1.1766 -1.8402,1.6608 -0.1507,0.1226 -0.296,0.2284 -0.4273,0.3254 -0.0168,0.0109 -0.0314,0.0225 -0.0401,0.0341 -0.558,0.4042 -1.1166,0.7579 -1.6833,1.0482 -0.0225,0.0167 -0.054,0.0314 -0.0773,0.0401 -0.0166,0.008 -0.0343,0.0138 -0.0511,0.0254 -0.0823,0.0424 -0.1598,0.0825 -0.2363,0.1226 -1.3988,0.6725 -2.8007,1.0116 -4.1652,1.0116 -0.0401,0 -0.0824,0 -0.1197,0l-0.1027 -0.0058c-3.7546,-0.0285 -6.9884,-0.9576 -9.6125,-2.7635l-0.1619 -0.1116 0 2.7066 0.0568 0.0283c2.6635,1.4224 5.7974,2.1656 9.3105,2.2196l0.2248 0.0058c0.0884,0.0028 0.1794,0.0057 0.2735,0.0057 4.6925,0 9.5352,-3.4161 13.6239,-9.6096 0.4901,-0.6665 0.8999,-1.0029 1.8145,-1.0029l0.8745 0c1.5018,0 2.2996,0.5842 2.2996,1.6922 0,0.0372 0,0.0655 -0.0089,0.1027l-0.0399 0.2706 0.208 -0.1736c1.2191,-1.0174 1.8544,-1.5812 1.8858,-1.6839l0.0089 -0.0343 -0.0109 -0.0315c-0.4902,-1.344 -1.8295,-2.0822 -3.7672,-2.0822l-2.1224 0c-1.6293,0 -1.8518,-0.3815 -1.8518,-0.7978 0.0002,-0.3589 0.2312,-0.6637 0.6411,-0.8373 0.3846,0.0686 0.9576,0.1364 1.442,0.1364 3.1363,0 5.0848,-1.6752 5.0848,-4.3702 0.0002,-0.8628 -0.2874,-1.6236 -0.7972,-2.134l1.7689 0 0 -1.846 -3.988 0c-0.6527,-0.1451 -1.1772,-0.202 -1.8125,-0.202m2.5733 4.3192c0,1.5832 -1.0207,2.5264 -2.7352,2.5264 -1.7606,0 -2.7271,-0.8971 -2.7271,-2.5264 0.0002,-1.5586 1.097,-2.5644 2.7949,-2.5644 1.6959,0 2.6672,0.9343 2.6674,2.5644z"
       id="path108" /><path
       class="fil1"
       d="M157.17 272.569l1.3157 0 0 1.3165 1.3134 0 0 1.3165 -1.3134 0 0 1.3134 -1.3157 0 0 -1.3134 -1.3163 0 0 -1.3165 1.3163 0 0 -1.3165zm-15.2853 0l1.3166 0 0 1.3165 1.3134 0 0 1.3165 -1.3134 0 0 1.3134 -1.3166 0 0 -1.3134 -1.3156 0 0 -1.3165 1.3156 0 0 -1.3165zm4.0827 -5.2957l8.4414 0c0.0998,0 0.1509,0.0315 0.1509,0.0993l0 0.1509c0,1.0655 -0.3335,2.0006 -1,2.8007 -0.6636,0.7949 -1.498,1.2967 -2.4986,1.4989 -0.0647,0.3274 -0.0993,0.5811 -0.0993,0.7459 -0.1341,1.234 0.0168,2.3988 0.4501,3.4986 0.4674,1.097 1.1311,2.0312 1.9969,2.7949 0.0343,0 0.0517,0.0341 0.0517,0.0999 0.0002,0.1027 -0.0517,0.148 -0.1487,0.148l-6.2474 0c-0.1001,0 -0.1482,-0.0453 -0.1482,-0.148 0.0002,-0.0658 0.0169,-0.0999 0.0481,-0.0999 0.8696,-0.7637 1.5156,-1.6979 1.949,-2.7949 0.4674,-1.0998 0.6351,-2.2646 0.4988,-3.4986 0,-0.1648 -0.0314,-0.4185 -0.0972,-0.7459 -0.9997,-0.2022 -1.8319,-0.704 -2.5015,-1.4989 -0.6665,-0.8001 -1,-1.7352 -1,-2.8007l0.0002 -0.1509c0,-0.0649 0.0517,-0.0993 0.1538,-0.0993l0 0zm11.2026 -2.3477l1.3157 0 0 1.3165 1.3134 0 0 1.3128 -1.3134 0 0 1.3165 -1.3157 0 0 -1.3165 -1.3163 0 0 -1.3128 1.3163 0 0 -1.3165zm-15.2853 0l1.3166 0 0 1.3165 1.3134 0 0 1.3128 -1.3134 0 0 1.3165 -1.3166 0 0 -1.3165 -1.3156 0 0 -1.3128 1.3156 0 0 -1.3165zm8.3021 -2.6181c1.2026,0 2.1738,0.9714 2.1738,2.1711 0.0002,1.1989 -0.9714,2.1735 -2.174,2.1735 -1.1989,0 -2.1735,-0.9746 -2.1735,-2.1735 0,-1.1997 0.9744,-2.1711 2.1735,-2.1711l0.0002 0zm6.9832 -5.0769l1.3157 0 0 1.3163 1.3134 0 0 1.3165 -1.3134 0 0 1.3157 -1.3157 0 0 -1.3157 -1.3163 0 0 -1.3165 1.3163 0 0 -1.3163zm-15.2853 0l1.3166 0 0 1.3163 1.3134 0 0 1.3165 -1.3134 0 0 1.3157 -1.3166 0 0 -1.3157 -1.3156 0 0 -1.3165 1.3156 0 0 -1.3163zm7.6469 0l1.3165 0 0 1.3163 1.3157 0 0 1.3165 -1.3157 0 0 1.3157 -1.3165 0 0 -1.3157 -1.3163 0 0 -1.3165 1.3163 0 0 -1.3163zm-2.8172 -1.994l6.9452 0 -0.0999 0.5499 -6.7432 0 -0.1021 -0.5499zm2.3498 -4.5474c0.4333,0 0.8145,0.1341 1.148,0.399 0.2654,-0.2649 0.633,-0.399 1.0967,-0.399 0.4677,0 0.852,0.1509 1.151,0.4506 0.2342,-0.1027 0.485,-0.1509 0.7527,-0.1509 0.4639,0 0.8627,0.1679 1.196,0.4983 0.3335,0.2989 0.4988,0.687 0.4988,1.1507 0.0003,0.399 -0.0969,0.7155 -0.296,0.9489l-0.7525 1.0999 -0.698 0 0.9998 -1.3988c0.1313,-0.2678 0.1968,-0.4815 0.1968,-0.65 0.0002,-0.299 -0.1137,-0.55 -0.35,-0.7459 -0.1968,-0.2365 -0.4616,-0.3509 -0.7949,-0.3509 -0.1683,0 -0.3049,0.0116 -0.4019,0.0459 0.0972,0.2706 0.1509,0.5185 0.1509,0.7519 0.0002,0.3333 -0.0684,0.6155 -0.202,0.8489l-0.8488 1.4989 -0.6498 0 1 -1.7497c0.0998,-0.1991 0.1507,-0.3982 0.1507,-0.5981 0.0002,-0.2989 -0.1166,-0.5528 -0.35,-0.7519 -0.1997,-0.2313 -0.4507,-0.3479 -0.7528,-0.3479 -0.3644,0 -0.646,0.1342 -0.8488,0.399l0 3.0486 -0.5469 0 0 -3.0486c-0.2019,-0.2648 -0.4843,-0.399 -0.849,-0.399 -0.3019,0 -0.5696,0.1166 -0.8001,0.3479 -0.1999,0.1991 -0.2998,0.453 -0.2998,0.7519 0,0.1999 0.0488,0.399 0.1489,0.5981l0.9998 1.7497 -0.6469 0 -0.8518 -1.4989c-0.1342,-0.2334 -0.1999,-0.5156 -0.1999,-0.8489 0,-0.2334 0.0488,-0.4813 0.1517,-0.7519 -0.0684,-0.0343 -0.1999,-0.0459 -0.399,-0.0459 -0.3332,0 -0.6185,0.1144 -0.8488,0.3509 -0.2026,0.1959 -0.3021,0.4469 -0.3021,0.7459 0,0.1685 0.0649,0.3822 0.1991,0.65l1.0002 1.3988 -0.6981 0 -0.752 -1.0999c-0.1997,-0.2334 -0.2991,-0.5499 -0.2991,-0.9489 0,-0.4637 0.1679,-0.8518 0.4982,-1.1507 0.3364,-0.3304 0.7323,-0.4983 1.2026,-0.4983 0.2305,0 0.4813,0.0482 0.7462,0.1509 0.2991,-0.2997 0.6841,-0.4506 1.1509,-0.4506l0 0zm0.8978 -1.299l0.453 0 0 0.3529 0.3471 0 0 0.3961 -0.3471 0 0 0.3509 -0.453 0 0 -0.3509 -0.3479 0 0 -0.3961 0.3479 0 0 -0.3529zm-12.8887 -1.7459l0 34.9676 26.2304 0 0 -34.9676 -26.2304 0z"
       id="path110" /><path
       class="fil1"
       d="M209.308 252.213c-0.3306,-0.0343 -0.7069,-0.0481 -1.1284,-0.0481l-1.1536 0 0 6.1738c0,0.5551 0.0312,1.1108 0.0996,1.6665 0.1081,0.5872 0.245,1.0569 0.4472,1.6207l-2.6467 0c0.2078,-0.5638 0.342,-1.0335 0.4499,-1.6293 0.0686,-0.55 0.0969,-1.1028 0.0969,-1.6579l0.0002 -6.1738 -1.1509 0c-0.4215,0 -0.8009,0.0138 -1.1283,0.0481 -0.4842,0.043 -0.9314,0.2196 -1.3763,0.4106l0 -1.932 8.8658 0 0 1.932c-0.4443,-0.191 -0.8913,-0.3676 -1.3754,-0.4106z"
       id="path112" /><path
       class="fil1"
       d="M200.239 253.983l0 5.7434c0,0.2275 0.0176,0.5214 0.0488,0.8774 0.0395,0.399 0.1139,0.6527 0.2531,1.0226l-1.7889 0c-0.2248,-0.4582 -0.55,-0.9403 -0.8491,-1.3529l-4.9541 -6.8063 0 4.872c0,0.5551 0.0312,1.1108 0.0968,1.6665 0.111,0.5872 0.248,1.0598 0.45,1.6236l-2.6466 0c0.205,-0.5667 0.3419,-1.0364 0.4529,-1.6293 0.0656,-0.5529 0.097,-1.1057 0.097,-1.6608l0 -5.7434c0,-0.2282 -0.0168,-0.5216 -0.0482,-0.8774 -0.0401,-0.399 -0.1145,-0.6587 -0.2568,-1.0291l1.8919 0c0.2247,0.4676 0.5499,0.94 0.852,1.3595l4.8515 6.6894 0 -4.7552c0,-0.5559 -0.0314,-1.1137 -0.0971,-1.6665 -0.1109,-0.59 -0.2473,-1.0597 -0.4499,-1.6272l2.6438 0c-0.202,0.5703 -0.3393,1.0401 -0.4472,1.6301 -0.0684,0.5549 -0.0999,1.1077 -0.0999,1.6636z"
       id="path114" /><path
       class="fil1"
       d="M181.06 253.98c0,-0.5557 -0.0317,-1.1106 -0.0972,-1.6634 -0.1108,-0.59 -0.2444,-1.0597 -0.4501,-1.6272l2.6469 0c-0.2022,0.5675 -0.3393,1.0401 -0.4501,1.6301 -0.0657,0.5549 -0.0969,1.1077 -0.0969,1.6605l0 3.7606c0,1.3821 1.1253,2.5102 2.5102,2.5102 1.3843,0 2.5067,-1.1281 2.5067,-2.5102l0 -3.7606c0,-0.5557 -0.0314,-1.1106 -0.0969,-1.6634 -0.1109,-0.59 -0.2479,-1.0597 -0.4501,-1.6272l2.644 0c-0.1991,0.5675 -0.3364,1.0401 -0.4472,1.6301 -0.0684,0.5549 -0.097,1.1077 -0.097,1.6605l0 3.7606c0,2.2396 -1.8174,4.0573 -4.0595,4.0573 -2.2427,0 -4.0601,-1.8177 -4.0601,-4.0573l0.0002 -2.749 -0.0029 -1.0116z"
       id="path116" /><path
       class="fil1"
       d="M170.084 250.689l2.6063 0c0.0511,0.2086 0.097,0.4134 0.1538,0.6185 0.0798,0.2421 0.1766,0.4646 0.5384,1.037 0.3277,0.4983 1.2508,1.8036 1.5667,2.2566l1.4446 -2.2566c0.2167,-0.3275 0.3532,-0.5782 0.4245,-0.7606 0.111,-0.2824 0.1598,-0.5952 0.2051,-0.8949l2.4077 0c-0.3736,0.4449 -0.7209,0.8949 -1.0286,1.3878 0,0 -1.9801,3.0508 -2.5075,3.8604l2.9262 4.3161c0.5354,0.7265 1.1792,1.3728 1.1792,1.3728l-2.9566 0c0.0621,-0.5208 0.0736,-0.8229 -0.2371,-1.3157 -0.0254,-0.049 -1.8604,-2.9948 -1.8604,-2.9948l-1.3873 1.9714c-0.5214,0.8264 -0.8401,1.3821 -1.0736,2.3391l-2.522 0.0029c0.8694,-0.9118 1.6103,-1.9459 2.2909,-2.9998l1.7724 -2.6351 -2.1685 -3.0742c-0.846,-1.2361 -1.7744,-2.2309 -1.7742,-2.2309z"
       id="path118" /><path
       class="fil1"
       d="M217.467 252.174c-0.2648,-0.0863 -0.712,-0.1541 -1.1569,-0.157 -1.1333,-0.0028 -1.9998,0.313 -2.729,0.9482 -0.6607,0.5761 -1.0657,1.3791 -1.0911,2.522l4.977 0 0 -3.3132m1.8094 9.3528l0.0424 0.1022 -2.1565 0c0.1397,-0.3699 0.2164,-0.6296 0.2505,-1.0255 0.0404,-0.3618 0.0511,-0.6499 0.0511,-0.8803l0.0031 -2.7634 -4.9768 0 0 2.7831c0.0167,0.6382 0.0713,1.2565 0.1478,1.8861l-2.2477 0c0.2051,-0.5667 0.342,-1.0393 0.4528,-1.6322 0.0657,-0.5529 0.097,-1.1057 0.097,-1.6637l0.0002 -2.6977c0,-1.485 0.4556,-2.7037 1.3731,-3.6556 0.9518,-0.9516 2.2223,-1.4614 3.8714,-1.4614 0.4019,0 0.7242,0.0145 1.14,0.0597 0.5666,0.0511 1.131,0.1255 1.6919,0.2049l0.0002 8.9402c0,0.2304 0.0114,0.5185 0.0457,0.8803 0.0345,0.3362 0.1001,0.6039 0.2138,0.9233z"
       id="path120" /><path
       class="fil1"
       d="M248.906 267.063c-0.2656,-0.0802 -0.7128,-0.1509 -1.154,-0.1569 -1.1369,0 -2.0027,0.3159 -2.7321,0.951 -0.6613,0.5784 -1.0655,1.3793 -1.0911,2.5214l4.9772 0 0 -3.3155m1.8117 9.3529l0.0399 0.1079 -2.1536 0c0.1393,-0.3757 0.2106,-0.6322 0.2499,-1.0283 0.0343,-0.3618 0.0519,-0.6521 0.0519,-0.8803l0.0002 -2.7693 -4.9801 0 0 2.7889c0.0198,0.6353 0.0738,1.2537 0.154,1.8861l-2.2508 0.0029c0.2049,-0.5725 0.3414,-1.0422 0.453,-1.6351 0.0655,-0.5557 0.097,-1.1079 0.097,-1.6608l0 -2.7035c0,-1.4792 0.4529,-2.7008 1.3725,-3.6555 0.9489,-0.9488 2.2251,-1.4586 3.872,-1.4586 0.4048,0 0.7205,0.0116 1.1371,0.0569 0.5695,0.051 1.1304,0.1283 1.6948,0.2106l0.0002 8.9374c0,0.2282 0.0108,0.5185 0.0451,0.8803 0.0345,0.3361 0.1001,0.6038 0.2169,0.9204z"
       id="path122" /><path
       class="fil1"
       d="M239.86 268.874l0 4.3533c0,0.558 0.0344,1.1137 0.1028,1.6666 0.1081,0.5892 0.2452,1.0597 0.4472,1.6264l-2.6438 0c0.2028,-0.5667 0.339,-1.0393 0.4499,-1.6322 0.0657,-0.5528 0.0969,-1.1057 0.0969,-1.6608l0.0002 -4.3533c0,-0.5588 -0.0314,-1.1108 -0.0971,-1.6665 -0.1109,-0.5871 -0.2473,-1.0626 -0.4499,-1.6272l2.6438 0c-0.202,0.5675 -0.3393,1.0401 -0.4472,1.633 -0.0684,0.5551 -0.1028,1.105 -0.1028,1.6607z"
       id="path124" /><path
       class="fil1"
       d="M224.313 268.874l0 4.3533c0,0.558 0.0283,1.108 0.0969,1.6666 0.1108,0.5892 0.245,1.0597 0.4472,1.6264l-2.6409 0c0.1991,-0.5667 0.3391,-1.0393 0.447,-1.6322 0.0686,-0.5557 0.097,-1.1057 0.097,-1.6608l0 -4.3533c0,-0.5588 -0.0284,-1.1108 -0.097,-1.6694 -0.1079,-0.5842 -0.2479,-1.0597 -0.4472,-1.6243l2.6411 0c-0.2022,0.5675 -0.3364,1.0401 -0.4501,1.633 -0.0655,0.5499 -0.094,1.105 -0.094,1.6607z"
       id="path126" /><path
       class="fil1"
       d="M216.555 268.871l0 6.1081 1.1484 0c0.5551,0 1.1108,-0.0285 1.6637,-0.0969 0.5923,-0.111 1.0655,-0.2452 1.6293,-0.4472l-0.0027 2.0823 -6.5386 0c0.2058,-0.5667 0.3391,-1.0364 0.4505,-1.6293 0.068,-0.5557 0.0964,-1.1057 0.0964,-1.6608l0.0002 -4.3562c0,-0.5559 -0.0317,-1.1079 -0.0966,-1.6665 -0.1114,-0.59 -0.2478,-1.0597 -0.4507,-1.6272l2.644 0c-0.202,0.5675 -0.3363,1.043 -0.4471,1.633 -0.0656,0.5528 -0.097,1.1048 -0.0968,1.6607z"
       id="path128" /><path
       class="fil1"
       d="M210.738 267.063c-0.2655,-0.0802 -0.7067,-0.1509 -1.1538,-0.1509 -1.134,-0.006 -2.0005,0.3099 -2.7298,0.945 -0.6608,0.5784 -1.0627,1.3822 -1.0941,2.5214l4.9777 0 0 -3.3155m1.8116 9.3529l0.0403 0.105 -2.1538 0c0.1394,-0.3728 0.2136,-0.6293 0.2531,-1.0254 0.0314,-0.3618 0.0488,-0.6521 0.0488,-0.8803l0 -2.7693 -4.9775 0 0 2.7889c0.0203,0.6353 0.0742,1.2537 0.1567,1.8861l-2.2505 0c0.2026,-0.5696 0.3388,-1.0393 0.4476,-1.6322 0.068,-0.5557 0.0992,-1.1057 0.0992,-1.6608l0 -2.7035c0,-1.4792 0.4558,-2.7008 1.3734,-3.6555 0.9516,-0.9488 2.2251,-1.4586 3.8689,-1.4586 0.4079,0 0.7265,0.0116 1.1422,0.0569 0.5646,0.051 1.1282,0.1283 1.6899,0.2106l0 8.9374c0,0.2282 0.0138,0.5185 0.0482,0.8803 0.0312,0.3361 0.0969,0.6038 0.2135,0.9204z"
       id="path130" /><path
       class="fil1"
       d="M197.969 270.225c0.6294,0.0825 1.2506,0.1335 1.8859,0.1532l2.7263 0 0 0.886c0,3.5526 -2.5156,5.4278 -5.1369,5.4278 -3.0368,-0.0627 -5.5042,-2.5526 -5.5435,-5.6326 0.0424,-3.4017 3.0195,-6.0767 6.461,-5.5925 1.3846,0.1939 2.544,0.8459 3.4762,1.8772l-0.8694 1.8095c-0.8001,-1.2968 -1.94,-2.1399 -3.5243,-2.1399 -2.1848,0 -3.9681,1.7949 -3.9995,4.0318 0.0314,2.25 1.8145,4.0449 3.9995,4.0449 1.9262,0 3.3821,-1.2188 3.5555,-3.2419l-0.5294 0c-0.4243,0 -0.8007,0.0176 -1.1282,0.0488 -0.4871,0.0424 -0.9293,0.2218 -1.3734,0.4128l0.0002 -2.0851z"
       id="path132" /><path
       class="fil1"
       d="M185.935 270.074l0 2.0794c-0.3705,-0.1393 -0.6296,-0.2137 -1.0286,-0.2539 -0.3134,-0.0285 -0.5724,-0.0423 -0.7891,-0.0481l-2.031 0 0 3.1224 2.7321 0c0.3843,0 0.7291,-0.0199 1.0283,-0.0482 0.4873,-0.0461 0.9313,-0.2225 1.3762,-0.4106l0 2.0027 -7.2313 0c0.2057,-0.5667 0.342,-1.0364 0.4507,-1.6264 0.0658,-0.5557 0.0993,-1.1086 0.0993,-1.6637l0 -4.3562c0,-0.5559 -0.0337,-1.1079 -0.0993,-1.6665 -0.1087,-0.5871 -0.245,-1.0597 -0.4507,-1.6243l7.2313 0 0 2.0086c-0.4449,-0.1881 -0.8891,-0.3675 -1.3762,-0.4099 -0.3252,-0.0372 -0.7009,-0.0517 -1.1255,-0.0517l-2.6349 0 0 3.2506 1.9429 0c0.2277,0 0.5206,-0.0197 0.8772,-0.0511 0.5553,-0.0482 1.0286,-0.2531 1.0286,-0.2531z"
       id="path134" /><path
       class="fil1"
       d="M172.178 274.974l1.2843 0c2.0517,0.0057 3.7064,-1.7462 3.7064,-3.9202 0,-2.1793 -1.6578,-3.9283 -3.6833,-3.9283l-1.3074 -0.0029 0 7.8514m-1.644 -0.0854c0.0678,-0.5557 0.097,-1.1057 0.097,-1.6608l0 -4.3562c0,-0.5559 -0.0314,-1.1079 -0.0972,-1.6665 -0.1114,-0.5842 -0.245,-1.0597 -0.4498,-1.6243l3.3812 0c2.9115,0.0029 5.2423,2.4564 5.2423,5.473 0,3.0142 -2.3308,5.4641 -5.2221,5.4641l-3.4012 0c0.2048,-0.5667 0.3411,-1.0393 0.4498,-1.6293z"
       id="path136" /><path
       class="fil1"
       d="M231.735 275.09c1.584,0 2.7232,-0.8431 3.5241,-2.1392l0.8685 1.803c-0.9341,1.0341 -2.091,1.6868 -3.4782,1.8809 -3.4387,0.4813 -6.4159,-2.191 -6.4589,-5.5757 0.0432,-3.4017 3.0202,-6.0767 6.4589,-5.5925 1.3874,0.191 2.5439,0.8459 3.4782,1.8772l-0.8685 1.8095c-0.8007,-1.2968 -1.9401,-2.1457 -3.5243,-2.1457 -2.1848,0 -3.9661,1.7978 -3.9973,4.0376 0.0314,2.25 1.8123,4.0449 3.9975,4.0449z"
       id="path138" /><g
       id="_305439624"><polygon
         id="_147713024"
         class="fil1"
         points="53.1697,272.907 53.8203,272.907 53.0749,272.096 53.0529,272.072 53.0746,272.048 53.6839,271.37 53.0455,271.37 52.7674,271.692 52.7403,271.723 52.7132,271.692 52.4353,271.37 51.8069,271.37 52.4062,272.048 52.4278,272.073 52.4059,272.096 51.6617,272.903 51.6635,272.907 52.3088,272.907 52.7133,272.444 52.7404,272.413 52.7674,272.444 " /><path
         id="_147711776"
         class="fil1"
         d="M58.2393 272.726c0.1526,0.1472 0.3648,0.2351 0.5967,0.2351 0.0664,0 0.1327,-0.0077 0.197,-0.0225 0.0572,-0.0132 0.1133,-0.0324 0.1667,-0.0566l0 -0.3871c-0.0256,0.0162 -0.0531,0.03 -0.0816,0.0411 -0.0538,0.0208 -0.1115,0.032 -0.1671,0.032 -0.1268,0 -0.2353,-0.0448 -0.3123,-0.121 -0.0776,-0.0766 -0.123,-0.1844 -0.123,-0.3095 0,-0.1211 0.0468,-0.228 0.123,-0.3048 0.0769,-0.0773 0.1839,-0.124 0.3036,-0.124 0.06,0 0.1171,0.0135 0.1703,0.0355 0.0304,0.0125 0.0595,0.0278 0.0871,0.0448l0 -0.3931c-0.0472,-0.0242 -0.0977,-0.0428 -0.1496,-0.0555 -0.0611,-0.0151 -0.1251,-0.0224 -0.1894,-0.0224 -0.2454,0 -0.4638,0.0879 -0.619,0.2389 -0.1507,0.1467 -0.2427,0.3537 -0.2427,0.5985 0,0.229 0.0924,0.428 0.2403,0.5706z" /><path
         id="_147712736"
         class="fil1"
         d="M68.1177 272.911l0.5034 0 0 -0.6175c0,-0.1432 0.0212,-0.2707 0.0848,-0.3639 0.0652,-0.0959 0.1727,-0.1538 0.3429,-0.1538 0.0456,0 0.0881,0.0025 0.1303,0.0105 0.0269,0.0051 0.0537,0.0126 0.0809,0.0234l0 -0.4629 -0.0785 0c-0.1097,0 -0.2311,0.0285 -0.3232,0.0657 -0.1273,0.0519 -0.1112,0.05 -0.2372,0.1299l0 -0.0325 0 -0.1428 -0.5034 0 0 1.5439z" /><polygon
         id="_147707984"
         class="fil1"
         points="51.6176,276.207 52.1654,276.207 51.8187,273.907 51.2569,273.907 50.7573,275.151 50.7263,275.228 50.6967,275.15 50.2263,273.907 49.6715,273.907 49.281,276.207 49.8262,276.207 50.0203,274.875 50.0244,274.846 50.0525,274.846 50.0571,274.846 50.0791,274.846 50.0872,274.867 50.6209,276.207 50.8211,276.207 51.3811,274.867 51.3896,274.846 51.4111,274.846 51.418,274.846 51.4467,274.846 51.4503,274.875 " /><polygon
         id="_147707648"
         class="fil1"
         points="63.1673,276.207 64.7037,276.207 64.7037,275.798 64.0591,275.798 63.9985,275.798 64.032,275.748 64.7524,274.663 63.2385,274.663 63.2385,275.072 63.8628,275.072 63.9235,275.072 63.8899,275.122 " /><polygon
         id="_147706712"
         class="fil1"
         points="74.8694,276.205 75.4179,276.205 75.4179,274.396 75.4179,274.363 75.4505,274.363 75.928,274.363 75.928,273.907 74.3617,273.907 74.3617,274.363 74.8369,274.363 74.8694,274.363 74.8694,274.396 " /><polygon
         id="_147714248"
         class="fil1"
         points="83.5121,276.205 84.0156,276.205 84.0156,273.668 83.5121,273.668 " /><path
         id="_147716288"
         class="fil1"
         d="M51.0097 272.907l0.5503 0 0.0188 -0.0206 -0.8539 -2.2702 -0.6208 0 -0.8816 2.2908 0.5756 0 0.1533 -0.388 0.0091 -0.0228 0.0244 0 0.8462 0 0.0249 0 0.0087 0.0235 0.145 0.3873zm-0.8896 -0.8553l0.253 -0.7539 0.0083 -0.0245 0.0257 0 0.0065 0 0.0258 0 0.0082 0.0247 0.2507 0.7539 0.0158 0.0473 -0.0498 0 -0.5101 0 -0.0499 0 0.0158 -0.0475z" /><path
         id="_147716120"
         class="fil1"
         d="M52.5509 275.813l0.0013 0.0024 0.0048 0.0087 0.0001 0c0.0292,0.0498 0.0636,0.0972 0.1022,0.1414 0.0181,0.0195 0.0371,0.0382 0.057,0.0558 0.1735,0.1529 0.4183,0.234 0.6793,0.234 0.2612,0 0.5046,-0.0812 0.6769,-0.2336 0.1563,-0.1382 0.2547,-0.3361 0.2547,-0.5861 0,-0.2508 -0.0984,-0.4497 -0.2549,-0.5887 -0.0001,0 -0.0001,0 -0.0001,0 -0.1723,-0.1531 -0.4157,-0.2348 -0.6766,-0.2348 -0.2616,0 -0.5058,0.0818 -0.6788,0.235 -0.1569,0.1389 -0.2557,0.3378 -0.2557,0.5885 0,0.1435 0.0325,0.2698 0.0898,0.3774zm0.5565 -0.6663c0.0686,-0.0681 0.1662,-0.1105 0.2882,-0.1105 0.1217,0 0.2191,0.0424 0.2876,0.1105 0.0737,0.0734 0.1134,0.1765 0.1134,0.2889 0,0.1133 -0.0392,0.2154 -0.1123,0.2878l-0.0002 0.0002c-0.0686,0.0677 -0.1663,0.1091 -0.2885,0.1091 -0.1224,0 -0.2203,-0.0414 -0.289,-0.109 -0.0734,-0.0725 -0.1126,-0.1748 -0.1127,-0.2881l-0.0001 0c0,-0.1124 0.0396,-0.2155 0.1136,-0.2889z" /><path
         id="_147714392"
         class="fil1"
         d="M69.6022 275.813l0.0014 0.0024 0.0048 0.0087 0.0001 0c0.0292,0.0498 0.0636,0.0972 0.1022,0.1414 0.0181,0.0195 0.0371,0.0382 0.057,0.0558 0.1735,0.1529 0.4183,0.234 0.6792,0.234 0.2613,0 0.5047,-0.0812 0.677,-0.2336 0.1563,-0.1382 0.2547,-0.3361 0.2547,-0.5861 0,-0.2508 -0.0984,-0.4497 -0.2549,-0.5887 -0.0001,0 -0.0001,0 -0.0001,0 -0.1723,-0.1531 -0.4157,-0.2348 -0.6767,-0.2348 -0.2616,0 -0.5057,0.0818 -0.6787,0.235 -0.1569,0.1389 -0.2557,0.3378 -0.2557,0.5885 0,0.1435 0.0325,0.2698 0.0897,0.3774zm0.5566 -0.6663c0.0686,-0.0681 0.1662,-0.1105 0.2881,-0.1105 0.1218,0 0.2192,0.0424 0.2877,0.1105 0.0737,0.0734 0.1134,0.1765 0.1134,0.2889 0,0.1133 -0.0392,0.2154 -0.1123,0.2878l-0.0002 0.0002c-0.0686,0.0677 -0.1664,0.1091 -0.2886,0.1091 -0.1223,0 -0.2203,-0.0414 -0.2889,-0.109 -0.0734,-0.0725 -0.1126,-0.1748 -0.1127,-0.2881l-0.0001 0c0,-0.1124 0.0396,-0.2155 0.1136,-0.2889z" /><path
         id="_147717008"
         class="fil1"
         d="M81.4167 275.813l0.0013 0.0024 0.0048 0.0087 0.0001 0c0.0292,0.0498 0.0636,0.0972 0.1023,0.1414 0.018,0.0195 0.037,0.0382 0.057,0.0558 0.1735,0.1529 0.4182,0.234 0.6792,0.234 0.2612,0 0.5046,-0.0812 0.6769,-0.2336 0.1563,-0.1382 0.2547,-0.3361 0.2547,-0.5861 0,-0.2508 -0.0984,-0.4497 -0.2549,-0.5887 -0.0001,0 -0.0001,0 -0.0001,0 -0.1722,-0.1531 -0.4157,-0.2348 -0.6766,-0.2348 -0.2616,0 -0.5057,0.0818 -0.6788,0.235 -0.1569,0.1389 -0.2557,0.3378 -0.2557,0.5885 0,0.1435 0.0325,0.2698 0.0898,0.3774zm0.5565 -0.6663c0.0686,-0.0681 0.1663,-0.1105 0.2882,-0.1105 0.1217,0 0.2191,0.0424 0.2877,0.1105 0.0737,0.0734 0.1134,0.1765 0.1134,0.2889 0,0.1133 -0.0393,0.2154 -0.1124,0.2878l-0.0002 0.0002c-0.0686,0.0677 -0.1663,0.1091 -0.2885,0.1091 -0.1224,0 -0.2203,-0.0414 -0.2889,-0.109 -0.0735,-0.0725 -0.1127,-0.1748 -0.1128,-0.2881l-0.0001 0c0,-0.1124 0.0396,-0.2155 0.1136,-0.2889z" /><path
         id="_147716480"
         class="fil1"
         d="M84.4278 275.813l0.0013 0.0024 0.0048 0.0087 0.0001 0c0.0292,0.0498 0.0636,0.0972 0.1022,0.1414 0.0181,0.0195 0.0371,0.0382 0.057,0.0558 0.1735,0.1529 0.4183,0.234 0.6793,0.234 0.2612,0 0.5046,-0.0812 0.6769,-0.2336 0.1563,-0.1382 0.2547,-0.3361 0.2547,-0.5861 0,-0.2508 -0.0984,-0.4497 -0.2549,-0.5887 -0.0001,0 -0.0001,0 -0.0001,0 -0.1723,-0.1531 -0.4157,-0.2348 -0.6766,-0.2348 -0.2616,0 -0.5058,0.0818 -0.6788,0.235 -0.1569,0.1389 -0.2557,0.3378 -0.2557,0.5885 0,0.1435 0.0325,0.2698 0.0898,0.3774zm0.5565 -0.6663c0.0686,-0.0681 0.1662,-0.1105 0.2882,-0.1105 0.1217,0 0.2191,0.0424 0.2876,0.1105 0.0737,0.0734 0.1134,0.1765 0.1134,0.2889 0,0.1133 -0.0392,0.2154 -0.1123,0.2878l-0.0002 0.0002c-0.0686,0.0677 -0.1664,0.1091 -0.2885,0.1091 -0.1224,0 -0.2203,-0.0414 -0.289,-0.109 -0.0734,-0.0725 -0.1126,-0.1748 -0.1127,-0.2881l-0.0001 0c0,-0.1124 0.0396,-0.2155 0.1136,-0.2889z" /><rect
         id="_147718448"
         class="fil1"
         x="59.6198"
         y="271.371"
         width="0.503154"
         height="1.53979" /><circle
         id="_147719384"
         class="fil1"
         cx="59.8732"
         cy="270.717"
         r="0.283933" /><rect
         id="_147717992"
         class="fil1"
         x="68.6891"
         y="274.668"
         width="0.503154"
         height="1.53979" /><circle
         id="_147716864"
         class="fil1"
         cx="68.9425"
         cy="274.015"
         r="0.283933" /><polygon
         id="_147716528"
         class="fil1"
         points="87.843,276.203 88.4936,276.203 87.7482,275.392 87.7262,275.368 87.748,275.344 88.3572,274.666 87.7189,274.666 87.4408,274.988 87.4137,275.019 87.3866,274.988 87.1086,274.666 86.4802,274.666 87.0796,275.344 87.1012,275.368 87.0792,275.392 86.3351,276.198 86.3369,276.203 86.9822,276.203 87.3867,275.74 87.4138,275.708 87.4408,275.74 " /><path
         id="_291719288"
         class="fil1"
         d="M89.8142 276.02c0.1526,0.1471 0.3648,0.235 0.5967,0.235 0.0664,0 0.1327,-0.0077 0.197,-0.0225 0.0572,-0.0131 0.1132,-0.0323 0.1667,-0.0566l0 -0.3871c-0.0256,0.0163 -0.0531,0.0301 -0.0816,0.0411 -0.0538,0.0208 -0.1115,0.032 -0.1671,0.032 -0.1268,0 -0.2353,-0.0447 -0.3124,-0.1209 -0.0775,-0.0767 -0.1229,-0.1845 -0.1229,-0.3095 0,-0.1212 0.0468,-0.2281 0.1229,-0.3048 0.077,-0.0773 0.184,-0.1241 0.3037,-0.1241 0.06,0 0.1171,0.0135 0.1703,0.0355 0.0304,0.0125 0.0594,0.0278 0.0871,0.0448l0 -0.393c-0.0472,-0.0243 -0.0977,-0.0428 -0.1496,-0.0556 -0.0611,-0.015 -0.1251,-0.0224 -0.1894,-0.0224 -0.2454,0 -0.4638,0.0879 -0.619,0.2389 -0.1507,0.1467 -0.2427,0.3538 -0.2427,0.5985 0,0.229 0.0924,0.4281 0.2403,0.5707z" /><path
         id="_291720344"
         class="fil1"
         d="M67.3112 276.022c0.1526,0.1471 0.3648,0.235 0.5967,0.235 0.0665,0 0.1327,-0.0077 0.1971,-0.0225 0.0571,-0.0131 0.1132,-0.0323 0.1667,-0.0566l0 -0.3871c-0.0256,0.0162 -0.0531,0.03 -0.0817,0.0411 -0.0537,0.0208 -0.1115,0.032 -0.1671,0.032 -0.1268,0 -0.2353,-0.0448 -0.3123,-0.1209 -0.0776,-0.0767 -0.123,-0.1845 -0.123,-0.3095 0,-0.1212 0.0468,-0.2281 0.123,-0.3048 0.0769,-0.0773 0.1839,-0.1241 0.3036,-0.1241 0.0601,0 0.1171,0.0135 0.1703,0.0355 0.0305,0.0125 0.0595,0.0278 0.0872,0.0448l0 -0.393c-0.0473,-0.0243 -0.0977,-0.0428 -0.1496,-0.0556 -0.0612,-0.015 -0.1251,-0.0224 -0.1894,-0.0224 -0.2454,0 -0.4639,0.0879 -0.619,0.2389 -0.1508,0.1467 -0.2427,0.3538 -0.2427,0.5985 0,0.229 0.0923,0.428 0.2402,0.5707z" /><path
         id="_291720464"
         class="fil1"
         d="M77.9982 276.027c0.1526,0.1471 0.3648,0.235 0.5967,0.235 0.0664,0 0.1327,-0.0077 0.197,-0.0225 0.0572,-0.0131 0.1133,-0.0323 0.1667,-0.0566l0 -0.3871c-0.0256,0.0162 -0.0531,0.03 -0.0816,0.0411 -0.0538,0.0208 -0.1115,0.032 -0.1671,0.032 -0.1268,0 -0.2353,-0.0448 -0.3123,-0.1209 -0.0776,-0.0767 -0.123,-0.1845 -0.123,-0.3095 0,-0.1212 0.0468,-0.2281 0.123,-0.3048 0.0769,-0.0773 0.1839,-0.1241 0.3036,-0.1241 0.06,0 0.1171,0.0135 0.1703,0.0355 0.0304,0.0125 0.0595,0.0278 0.0871,0.0448l0 -0.393c-0.0472,-0.0243 -0.0977,-0.0428 -0.1496,-0.0556 -0.0611,-0.015 -0.1251,-0.0224 -0.1893,-0.0224 -0.2455,0 -0.4639,0.0879 -0.6191,0.2389 -0.1507,0.1467 -0.2427,0.3538 -0.2427,0.5985 0,0.229 0.0924,0.428 0.2403,0.5707z" /><path
         id="_291721064"
         class="fil1"
         d="M60.7534 272.726c0.1361,0.1442 0.3311,0.2257 0.5532,0.2257 0.1835,0 0.3838,-0.0741 0.5173,-0.1993l0 0.036 0.0063 0.1381 0.4986 0 0 -1.5563 -0.4986 0 0 0.0339 0 0.0972c-0.1154,-0.1346 -0.3593,-0.1831 -0.5352,-0.1831 -0.2223,0 -0.4109,0.0896 -0.5455,0.2325 -0.1413,0.1501 -0.2238,0.3596 -0.2238,0.587 0,0.2259 0.0843,0.4366 0.2277,0.5883zm0.4037 -0.8739c0.0693,-0.0686 0.1675,-0.1114 0.2892,-0.1114 0.1219,0 0.2193,0.0426 0.2879,0.1111 0.0741,0.0739 0.1138,0.1776 0.1138,0.29 0,0.1143 -0.039,0.2153 -0.1119,0.2866 -0.0687,0.0674 -0.167,0.1081 -0.2898,0.1081 -0.1229,0 -0.2216,-0.0407 -0.291,-0.1084 -0.0732,-0.0713 -0.1129,-0.1723 -0.1129,-0.2863 0,-0.1122 0.0403,-0.2158 0.1147,-0.2897z" /><path
         id="_291720728"
         class="fil1"
         d="M65.2896 272.726c-0.1362,0.1442 -0.3265,0.2353 -0.5486,0.2353 -0.2771,0 -0.3449,-0.0637 -0.5283,-0.2322l0 0.036 0 0.9465 -0.4986 0 0 -2.3414 0.4986 0 0 0.0498 0 0.0973c0.1115,-0.13 0.3681,-0.1991 0.5352,-0.1991 0.2223,0 0.411,0.0896 0.5455,0.2325 0.1413,0.1501 0.2238,0.3596 0.2238,0.587 0,0.2259 -0.0843,0.4366 -0.2276,0.5883zm-0.4038 -0.8739c-0.0693,-0.0686 -0.1674,-0.1114 -0.2892,-0.1114 -0.1219,0 -0.2193,0.0426 -0.2879,0.1111 -0.0741,0.0739 -0.1138,0.1776 -0.1138,0.29 0,0.1143 0.039,0.2153 0.1119,0.2866 0.0687,0.0674 0.167,0.1081 0.2898,0.1081 0.1229,0 0.2217,-0.0407 0.291,-0.1084 0.0733,-0.0713 0.113,-0.1723 0.113,-0.2863 0,-0.1122 -0.0404,-0.2158 -0.1148,-0.2897z" /><path
         id="_291720848"
         class="fil1"
         d="M57.131 272.905l0.4987 0 0 -0.9548c0,-0.199 -0.0441,-0.364 -0.1443,-0.4747 -0.0904,-0.0997 -0.229,-0.157 -0.4246,-0.157 -0.1828,0 -0.4178,0.078 -0.5569,0.1982l0 -0.0361 0 -0.1101 -0.4966 0 0 1.5345 0.4967 0 -0.0001 -0.6418 -0.0001 0c0,-0.1082 0.0143,-0.1958 0.0646,-0.2706 0.0525,-0.0781 0.1284,-0.1753 0.2712,-0.1797 0.2961,0 0.2934,0.2552 0.2916,0.4243l-0.0003 0.0341 0.0001 0 0 0.6337z" /><path
         id="_291721208"
         class="fil1"
         d="M61.4256 276.201l0.4987 0 0 -0.9548c0,-0.199 -0.0441,-0.364 -0.1443,-0.4747 -0.0904,-0.0997 -0.229,-0.1571 -0.4246,-0.1571 -0.1828,0 -0.4178,0.0781 -0.5569,0.1982l0 -0.036 0 -0.1101 -0.4966 0 0 1.5345 0.4967 0 -0.0001 -0.6419 -0.0001 0c0,-0.1081 0.0143,-0.1957 0.0646,-0.2706 0.0525,-0.078 0.1283,-0.1753 0.2711,-0.1796 0.2962,0 0.2935,0.2552 0.2917,0.4242l-0.0003 0.0341 0.0001 0 0 0.6338z" /><path
         id="_291721328"
         class="fil1"
         d="M72.8279 276.201l0.4987 0 0 -0.9548c0,-0.199 -0.0441,-0.364 -0.1443,-0.4747 -0.0904,-0.0997 -0.229,-0.1571 -0.4246,-0.1571 -0.1828,0 -0.4178,0.0781 -0.5569,0.1982l0 -0.036 0 -0.1101 -0.4966 0 0 1.5345 0.4966 0 0 -0.6419 -0.0001 0c0,-0.1081 0.0143,-0.1957 0.0646,-0.2706 0.0525,-0.078 0.1283,-0.1753 0.2711,-0.1796 0.2962,0 0.2935,0.2552 0.2917,0.4242l-0.0003 0.0341 0.0001 0 0 0.6338z" /><path
         id="_291719576"
         class="fil1"
         d="M80.5008 276.202l0.4988 0 0 -0.9548c0,-0.1991 -0.0442,-0.3641 -0.1444,-0.4747 -0.0904,-0.0997 -0.229,-0.1571 -0.4246,-0.1571 -0.1828,0 -0.4178,0.0781 -0.5569,0.1982l0 -0.036 0 -0.1101 -0.4965 0 0 1.5345 0.4966 0 -0.0001 -0.6419 -0.0001 0c0,-0.1081 0.0144,-0.1957 0.0646,-0.2706 0.0525,-0.078 0.1284,-0.1753 0.2712,-0.1796 0.2962,0 0.2934,0.2551 0.2916,0.4242l-0.0003 0.0341 0.0001 0 0 0.6338z" /><rect
         id="_291722552"
         class="fil1"
         x="62.3603"
         y="274.668"
         width="0.503154"
         height="1.53979" /><circle
         id="_291721688"
         class="fil1"
         cx="62.6137"
         cy="274.015"
         r="0.283933" /><rect
         id="_291721808"
         class="fil1"
         x="88.7231"
         y="274.668"
         width="0.503154"
         height="1.53979" /><circle
         id="_291722720"
         class="fil1"
         cx="88.9765"
         cy="274.015"
         r="0.283933" /><polygon
         id="_291722840"
         class="fil1"
         points="70.2121,274.121 70.4794,274.261 70.9076,273.897 70.5673,273.613 " /><polygon
         id="_291723320"
         class="fil1"
         points="85.0224,274.121 85.2896,274.261 85.7178,273.897 85.3776,273.613 " /><path
         id="_291723440"
         class="fil1"
         d="M54.8824 274.846c0.1363,-0.1441 0.3269,-0.2352 0.5493,-0.2352 0.2775,0 0.3454,0.0637 0.5291,0.2322l0 -0.036 0 -1.1421 0.4993 0 0 2.5369 -0.4993 0 0 -0.0498 0 -0.0972c-0.1116,0.13 -0.3687,0.1991 -0.536,0.1991 -0.2226,0 -0.4115,-0.0896 -0.5463,-0.2325 -0.1415,-0.1501 -0.2241,-0.3597 -0.2241,-0.587 0,-0.2259 0.0844,-0.4367 0.228,-0.5884zm0.4043 0.8739c0.0694,0.0687 0.1677,0.1115 0.2896,0.1115 0.1221,0 0.2197,-0.0427 0.2884,-0.1111 0.0742,-0.0739 0.1139,-0.1776 0.1139,-0.29 0,-0.1143 -0.039,-0.2153 -0.112,-0.2867 -0.0688,-0.0673 -0.1673,-0.108 -0.2903,-0.108 -0.123,0 -0.2219,0.0407 -0.2914,0.1083 -0.0734,0.0714 -0.1131,0.1724 -0.1131,0.2864 0,0.1122 0.0404,0.2157 0.1149,0.2896z" /><path
         id="_291723800"
         class="fil1"
         d="M66.097 272.726c0.1362,0.1442 0.3312,0.2257 0.5533,0.2257 0.1835,0 0.3838,-0.0741 0.5173,-0.1993l0 0.036 0.0062 0.1381 0.4986 0 0 -1.5563 -0.4986 0 0 0.0339 0 0.0972c-0.1154,-0.1346 -0.3593,-0.1831 -0.5352,-0.1831 -0.2222,0 -0.4109,0.0896 -0.5455,0.2325 -0.1412,0.1501 -0.2237,0.3596 -0.2237,0.587 0,0.2259 0.0843,0.4366 0.2276,0.5883zm0.4038 -0.8739c0.0692,-0.0686 0.1674,-0.1114 0.2891,-0.1114 0.122,0 0.2194,0.0426 0.288,0.1111 0.0741,0.0739 0.1138,0.1776 0.1138,0.29 0,0.1143 -0.039,0.2153 -0.1119,0.2866 -0.0687,0.0674 -0.167,0.1081 -0.2899,0.1081 -0.1228,0 -0.2216,-0.0407 -0.2909,-0.1084 -0.0733,-0.0713 -0.113,-0.1723 -0.113,-0.2863 0,-0.1122 0.0404,-0.2158 0.1148,-0.2897z" /><path
         id="_291723920"
         class="fil1"
         d="M69.7679 272.726c0.1361,0.1442 0.3311,0.2257 0.5532,0.2257 0.1835,0 0.3838,-0.0741 0.5173,-0.1993l0 0.036 0.0063 0.1381 0.4986 0 0 -1.5563 -0.4986 0 0 0.0339 0 0.0972c-0.1154,-0.1346 -0.3594,-0.1831 -0.5352,-0.1831 -0.2223,0 -0.4109,0.0896 -0.5455,0.2325 -0.1413,0.1501 -0.2238,0.3596 -0.2238,0.587 0,0.2259 0.0843,0.4366 0.2277,0.5883zm0.4037 -0.8739c0.0693,-0.0686 0.1675,-0.1114 0.2892,-0.1114 0.1219,0 0.2193,0.0426 0.2879,0.1111 0.0741,0.0739 0.1138,0.1776 0.1138,0.29 0,0.1143 -0.039,0.2153 -0.1119,0.2866 -0.0687,0.0674 -0.167,0.1081 -0.2898,0.1081 -0.1229,0 -0.2216,-0.0407 -0.291,-0.1084 -0.0733,-0.0713 -0.1129,-0.1723 -0.1129,-0.2863 0,-0.1122 0.0403,-0.2158 0.1147,-0.2897z" /><path
         id="_291723584"
         class="fil1"
         d="M73.1408 272.726c0.1362,0.1442 0.3312,0.2257 0.5533,0.2257 0.1835,0 0.3838,-0.0741 0.5173,-0.1993l0 0.036 0.0062 0.1381 0.4987 0 0 -1.5563 -0.4987 0 0 0.0339 0 0.0972c-0.1154,-0.1346 -0.3593,-0.1831 -0.5352,-0.1831 -0.2222,0 -0.4109,0.0896 -0.5454,0.2325 -0.1413,0.1501 -0.2238,0.3596 -0.2238,0.587 0,0.2259 0.0843,0.4366 0.2276,0.5883zm0.4038 -0.8739c0.0692,-0.0686 0.1674,-0.1114 0.2891,-0.1114 0.122,0 0.2194,0.0426 0.288,0.1111 0.0741,0.0739 0.1138,0.1776 0.1138,0.29 0,0.1143 -0.039,0.2153 -0.1119,0.2866 -0.0687,0.0674 -0.167,0.1081 -0.2899,0.1081 -0.1228,0 -0.2216,-0.0407 -0.2909,-0.1084 -0.0733,-0.0713 -0.113,-0.1723 -0.113,-0.2863 0,-0.1122 0.0404,-0.2158 0.1148,-0.2897z" /><path
         id="_291725600"
         class="fil1"
         d="M65.1625 276.025c0.1362,0.1441 0.3312,0.2257 0.5532,0.2257 0.1836,0 0.3838,-0.0741 0.5174,-0.1994l0 0.036 0.0062 0.1381 0.4986 0 0 -1.5562 -0.4986 0 0 0.0338 0 0.0973c-0.1154,-0.1347 -0.3593,-0.1832 -0.5352,-0.1832 -0.2223,0 -0.4109,0.0896 -0.5455,0.2325 -0.1413,0.1502 -0.2238,0.3597 -0.2238,0.5871 0,0.2258 0.0843,0.4366 0.2277,0.5883zm0.4037 -0.8739c0.0693,-0.0686 0.1675,-0.1115 0.2892,-0.1115 0.1219,0 0.2194,0.0427 0.288,0.1111 0.0741,0.0739 0.1138,0.1777 0.1138,0.29 0,0.1143 -0.0391,0.2153 -0.1119,0.2867 -0.0687,0.0674 -0.167,0.108 -0.2899,0.108 -0.1228,0 -0.2216,-0.0406 -0.291,-0.1083 -0.0732,-0.0714 -0.1129,-0.1724 -0.1129,-0.2864 0,-0.1121 0.0404,-0.2157 0.1147,-0.2896z" /><path
         id="_291724184"
         class="fil1"
         d="M91.3001 276.012c0.1362,0.1442 0.3311,0.2257 0.5532,0.2257 0.1835,0 0.3838,-0.0741 0.5173,-0.1993l0 0.036 0.0063 0.1381 0.4986 0 0 -1.5562 -0.4986 0 0 0.0338 0 0.0972c-0.1154,-0.1346 -0.3593,-0.1831 -0.5352,-0.1831 -0.2223,0 -0.4109,0.0896 -0.5455,0.2325 -0.1413,0.1501 -0.2238,0.3597 -0.2238,0.587 0,0.2259 0.0843,0.4367 0.2277,0.5883zm0.4037 -0.8739c0.0693,-0.0686 0.1675,-0.1114 0.2892,-0.1114 0.1219,0 0.2193,0.0426 0.288,0.1111 0.0741,0.0739 0.1137,0.1776 0.1137,0.29 0,0.1143 -0.039,0.2153 -0.1118,0.2866 -0.0688,0.0674 -0.167,0.1081 -0.2899,0.1081 -0.1229,0 -0.2216,-0.0407 -0.291,-0.1083 -0.0732,-0.0714 -0.1129,-0.1724 -0.1129,-0.2864 0,-0.1122 0.0403,-0.2158 0.1147,-0.2897z" /><path
         id="_291724688"
         class="fil1"
         d="M58.7827 276.208l0.5033 0 0 -0.6174c0,-0.1433 0.0213,-0.2708 0.0848,-0.364 0.0653,-0.0959 0.1727,-0.1538 0.3429,-0.1538 0.0456,0 0.0882,0.0025 0.1304,0.0105 0.0269,0.0052 0.0537,0.0127 0.0809,0.0234l0 -0.4629 -0.0785 0c-0.1097,0 -0.2312,0.0285 -0.3233,0.0657 -0.1273,0.052 -0.1111,0.05 -0.2372,0.13l0 -0.0326 0 -0.1427 -0.5033 0 0 1.5438z" /><path
         id="_291725888"
         class="fil1"
         d="M57.026 276.05c0.1508,0.1384 0.3681,0.2107 0.6187,0.2107 0.0857,0 0.1702,-0.0105 0.25,-0.0316 0.0776,-0.0204 0.1509,-0.0508 0.2163,-0.0909l0.0001 0c0.0961,-0.0582 0.2178,-0.2081 0.2515,-0.3191l-0.4547 0c-0.0468,0.072 -0.1889,0.1025 -0.2674,0.1025 -0.1198,0 -0.237,-0.0327 -0.2999,-0.0956l0 -0.0001c-0.0633,-0.0632 -0.1124,-0.1332 -0.1124,-0.2524l0 -0.034 0.034 0 1.1412 0 0 -0.0238c0,-0.2508 -0.0768,-0.5773 -0.2147,-0.7169 -0.1352,-0.137 -0.328,-0.2105 -0.5795,-0.2105 -0.242,0 -0.4518,0.072 -0.5937,0.2092 -0.1374,0.1329 -0.2145,0.4173 -0.2145,0.6574 0,0.2429 0.084,0.4656 0.225,0.5951zm0.3452 -1.0574c0.063,-0.0471 0.1689,-0.0714 0.2571,-0.0714 0.0807,0 0.1591,0.0278 0.2202,0.0762 0.0589,0.0467 0.1241,0.1209 0.1382,0.2002l0.0072 0.0398 -0.0406 0 -0.6853 0 -0.0419 0 0.0087 -0.041c0.0182,-0.0849 0.0761,-0.1585 0.1364,-0.2038l0 0z" /><path
         id="_305436768"
         class="fil1"
         d="M54.2197 272.715c0.1508,0.1384 0.368,0.2107 0.6187,0.2107 0.0857,0 0.1702,-0.0106 0.25,-0.0316 0.0776,-0.0205 0.1509,-0.0509 0.2163,-0.091l0.0001 0c0.0961,-0.0582 0.2178,-0.2081 0.2515,-0.3191l-0.4547 0c-0.0468,0.072 -0.1889,0.1025 -0.2674,0.1025 -0.1198,0 -0.237,-0.0326 -0.2999,-0.0955l0 -0.0001c-0.0633,-0.0632 -0.1124,-0.1333 -0.1124,-0.2524l0 -0.034 0.034 0 1.1412 0 0 -0.0239c0,-0.2507 -0.0768,-0.5773 -0.2147,-0.7169 -0.1352,-0.137 -0.328,-0.2105 -0.5795,-0.2105 -0.242,0 -0.4518,0.072 -0.5937,0.2092 -0.1374,0.1329 -0.2145,0.4173 -0.2145,0.6574 0,0.2429 0.084,0.4657 0.225,0.5952zm0.3452 -1.0575c0.063,-0.047 0.1688,-0.0714 0.2571,-0.0714 0.0807,0 0.1591,0.0278 0.2202,0.0762 0.0589,0.0468 0.1241,0.1209 0.1382,0.2003l0.0072 0.0398 -0.0406 0 -0.6853 0 -0.0419 0 0.0087 -0.0411c0.0182,-0.0848 0.0761,-0.1585 0.1364,-0.2037l0 -0.0001z" /><path
         id="_305440248"
         class="fil1"
         d="M76.0766 276.05c0.1508,0.1384 0.3681,0.2107 0.6187,0.2107 0.0857,0 0.1702,-0.0105 0.25,-0.0316 0.0776,-0.0204 0.1509,-0.0508 0.2163,-0.0909l0.0001 0c0.0961,-0.0582 0.194,-0.2081 0.2277,-0.3191l-0.4309 0c-0.0468,0.072 -0.1889,0.1025 -0.2674,0.1025 -0.1198,0 -0.237,-0.0327 -0.2999,-0.0956l0 -0.0001c-0.0633,-0.0632 -0.1124,-0.1332 -0.1124,-0.2524l0 -0.034 0.034 0 1.1174 0 0 -0.0238c0,-0.2508 -0.053,-0.5773 -0.1909,-0.7169 -0.1352,-0.137 -0.328,-0.2105 -0.5795,-0.2105 -0.242,0 -0.4518,0.072 -0.5937,0.2092 -0.1374,0.1329 -0.2145,0.4173 -0.2145,0.6574 0,0.2429 0.084,0.4656 0.225,0.5951zm0.3452 -1.0574c0.063,-0.0471 0.1689,-0.0714 0.2571,-0.0714 0.0807,0 0.1591,0.0278 0.2202,0.0762 0.0589,0.0467 0.1241,0.1209 0.1382,0.2002l0.0072 0.0398 -0.0406 0 -0.6853 0 -0.0419 0 0.0087 -0.041c0.0182,-0.0849 0.0761,-0.1585 0.1364,-0.2038l0 0z" /></g></g></svg>